<?xml version="1.0" encoding="UTF-8" standalone="no"?><svg xmlns="http://www.w3.org/2000/svg" xmlns:xlink="http://www.w3.org/1999/xlink" clip-rule="evenodd" stroke-miterlimit="10" viewBox="0 0 1024 768"><desc>SVG generated by Keynote</desc><defs></defs><g transform="matrix(1.00, 0.00, -0.00, -1.00, 0.0, 768.0)"><g><clipPath id="clip0x7fbe440d7700"><path d="M 0.0 768.0 L 1024.0 768.0 L 1024.0 0.0 L 0.0 0.0 Z M 0.0 768.0 "></path></clipPath><g clip-path="url(#clip0x7fbe440d7700)"><image xlink:href="../../E942948C-BC6A-49D1-B3B9-4DAB4A4FD6CB/assets/527288347077A8BC66C9A53B775387A8.jpeg" width="2048.00" height="1536.00" transform="matrix(0.50, 0.00, -0.00, -0.50, 0.0, 768.0)"></image></g></g><text xml:space="preserve" font-family="Times-Bold,Times" font-weight="bold" font-size="36.0" fill="#000000" transform="matrix(1.00, 0.00, -0.00, -1.00, 60.5, 635.3)">c</text><text xml:space="preserve" font-family="Times-Bold,Times" font-weight="bold" font-size="36.0" fill="#000000" transform="matrix(1.00, 0.00, -0.00, -1.00, 76.5, 635.3)">l</text><text xml:space="preserve" font-family="Times-Bold,Times" font-weight="bold" font-size="36.0" fill="#000000" transform="matrix(1.00, 0.00, -0.00, -1.00, 86.5, 635.3)">a</text><text xml:space="preserve" font-family="Times-Bold,Times" font-weight="bold" font-size="36.0" fill="#000000" transform="matrix(1.00, 0.00, -0.00, -1.00, 104.5, 635.3)">s</text><text xml:space="preserve" font-family="Times-Bold,Times" font-weight="bold" font-size="36.0" fill="#000000" transform="matrix(1.00, 0.00, -0.00, -1.00, 118.5, 635.3)">s</text><text xml:space="preserve" font-family="Times-Bold,Times" font-weight="bold" font-size="36.0" fill="#000000" transform="matrix(1.00, 0.00, -0.00, -1.00, 132.5, 635.3)"> </text><text xml:space="preserve" font-family="CourierNewPSMT,Courier New" font-size="36.0" fill="#000000" transform="matrix(1.00, 0.00, -0.00, -1.00, 141.5, 635.3)">E</text><text xml:space="preserve" font-family="CourierNewPSMT,Courier New" font-size="36.0" fill="#000000" transform="matrix(1.00, 0.00, -0.00, -1.00, 163.1, 635.3)">q</text><text xml:space="preserve" font-family="CourierNewPSMT,Courier New" font-size="36.0" fill="#000000" transform="matrix(1.00, 0.00, -0.00, -1.00, 184.7, 635.3)">u</text><text xml:space="preserve" font-family="CourierNewPSMT,Courier New" font-size="36.0" fill="#000000" transform="matrix(1.00, 0.00, -0.00, -1.00, 206.4, 635.3)">i</text><text xml:space="preserve" font-family="CourierNewPSMT,Courier New" font-size="36.0" fill="#000000" transform="matrix(1.00, 0.00, -0.00, -1.00, 228.0, 635.3)">l</text><text xml:space="preserve" font-family="CourierNewPSMT,Courier New" font-size="36.0" fill="#000000" transform="matrix(1.00, 0.00, -0.00, -1.00, 249.6, 635.3)">a</text><text xml:space="preserve" font-family="CourierNewPSMT,Courier New" font-size="36.0" fill="#000000" transform="matrix(1.00, 0.00, -0.00, -1.00, 271.2, 635.3)">t</text><text xml:space="preserve" font-family="CourierNewPSMT,Courier New" font-size="36.0" fill="#000000" transform="matrix(1.00, 0.00, -0.00, -1.00, 292.8, 635.3)">e</text><text xml:space="preserve" font-family="CourierNewPSMT,Courier New" font-size="36.0" fill="#000000" transform="matrix(1.00, 0.00, -0.00, -1.00, 314.4, 635.3)">r</text><text xml:space="preserve" font-family="CourierNewPSMT,Courier New" font-size="36.0" fill="#000000" transform="matrix(1.00, 0.00, -0.00, -1.00, 336.0, 635.3)">a</text><text xml:space="preserve" font-family="CourierNewPSMT,Courier New" font-size="36.0" fill="#000000" transform="matrix(1.00, 0.00, -0.00, -1.00, 357.6, 635.3)">l</text><text xml:space="preserve" font-family="CourierNewPSMT,Courier New" font-size="36.0" fill="#000000" transform="matrix(1.00, 0.00, -0.00, -1.00, 379.2, 635.3)">T</text><text xml:space="preserve" font-family="CourierNewPSMT,Courier New" font-size="36.0" fill="#000000" transform="matrix(1.00, 0.00, -0.00, -1.00, 400.8, 635.3)">r</text><text xml:space="preserve" font-family="CourierNewPSMT,Courier New" font-size="36.0" fill="#000000" transform="matrix(1.00, 0.00, -0.00, -1.00, 422.4, 635.3)">i</text><text xml:space="preserve" font-family="CourierNewPSMT,Courier New" font-size="36.0" fill="#000000" transform="matrix(1.00, 0.00, -0.00, -1.00, 444.0, 635.3)">a</text><text xml:space="preserve" font-family="CourierNewPSMT,Courier New" font-size="36.0" fill="#000000" transform="matrix(1.00, 0.00, -0.00, -1.00, 465.6, 635.3)">n</text><text xml:space="preserve" font-family="CourierNewPSMT,Courier New" font-size="36.0" fill="#000000" transform="matrix(1.00, 0.00, -0.00, -1.00, 487.2, 635.3)">g</text><text xml:space="preserve" font-family="CourierNewPSMT,Courier New" font-size="36.0" fill="#000000" transform="matrix(1.00, 0.00, -0.00, -1.00, 508.9, 635.3)">l</text><text xml:space="preserve" font-family="CourierNewPSMT,Courier New" font-size="36.0" fill="#000000" transform="matrix(1.00, 0.00, -0.00, -1.00, 530.5, 635.3)">e</text><text xml:space="preserve" font-family="CourierNewPSMT,Courier New" font-size="36.0" fill="#000000" transform="matrix(1.00, 0.00, -0.00, -1.00, 552.1, 635.3)">:</text><text xml:space="preserve" font-family="CourierNewPSMT,Courier New" font-size="36.0" fill="#000000" transform="matrix(1.00, 0.00, -0.00, -1.00, 573.7, 635.3)"> </text><text xml:space="preserve" font-family="CourierNewPSMT,Courier New" font-size="36.0" fill="#000000" transform="matrix(1.00, 0.00, -0.00, -1.00, 595.3, 635.3)">N</text><text xml:space="preserve" font-family="CourierNewPSMT,Courier New" font-size="36.0" fill="#000000" transform="matrix(1.00, 0.00, -0.00, -1.00, 616.9, 635.3)">a</text><text xml:space="preserve" font-family="CourierNewPSMT,Courier New" font-size="36.0" fill="#000000" transform="matrix(1.00, 0.00, -0.00, -1.00, 638.5, 635.3)">m</text><text xml:space="preserve" font-family="CourierNewPSMT,Courier New" font-size="36.0" fill="#000000" transform="matrix(1.00, 0.00, -0.00, -1.00, 660.1, 635.3)">e</text><text xml:space="preserve" font-family="CourierNewPSMT,Courier New" font-size="36.0" fill="#000000" transform="matrix(1.00, 0.00, -0.00, -1.00, 681.7, 635.3)">d</text><text xml:space="preserve" font-family="CourierNewPSMT,Courier New" font-size="36.0" fill="#000000" transform="matrix(1.00, 0.00, -0.00, -1.00, 703.3, 635.3)">S</text><text xml:space="preserve" font-family="CourierNewPSMT,Courier New" font-size="36.0" fill="#000000" transform="matrix(1.00, 0.00, -0.00, -1.00, 724.9, 635.3)">h</text><text xml:space="preserve" font-family="CourierNewPSMT,Courier New" font-size="36.0" fill="#000000" transform="matrix(1.00, 0.00, -0.00, -1.00, 746.5, 635.3)">a</text><text xml:space="preserve" font-family="CourierNewPSMT,Courier New" font-size="36.0" fill="#000000" transform="matrix(1.00, 0.00, -0.00, -1.00, 768.1, 635.3)">p</text><text xml:space="preserve" font-family="CourierNewPSMT,Courier New" font-size="36.0" fill="#000000" transform="matrix(1.00, 0.00, -0.00, -1.00, 789.7, 635.3)">e</text><text xml:space="preserve" font-family="CourierNewPSMT,Courier New" font-size="36.0" fill="#000000" transform="matrix(1.00, 0.00, -0.00, -1.00, 811.4, 635.3)"> </text><text xml:space="preserve" font-family="CourierNewPSMT,Courier New" font-size="36.0" fill="#000000" transform="matrix(1.00, 0.00, -0.00, -1.00, 833.0, 635.3)">{</text><text xml:space="preserve" font-family="CourierNewPSMT,Courier New" font-size="36.0" fill="#000000" transform="matrix(1.00, 0.00, -0.00, -1.00, 854.6, 635.3)"> </text><text xml:space="preserve" font-family="CourierNewPSMT,Courier New" font-size="36.0" fill="#000000" transform="matrix(1.00, 0.00, -0.00, -1.00, 876.1, 635.3)"> </text><text xml:space="preserve" font-family="CourierNewPSMT,Courier New" font-size="36.0" fill="#000000" transform="matrix(1.00, 0.00, -0.00, -1.00, 60.5, 578.5)"> </text><text xml:space="preserve" font-family="CourierNewPSMT,Courier New" font-size="36.0" fill="#000000" transform="matrix(1.00, 0.00, -0.00, -1.00, 96.5, 578.5)"> </text><text xml:space="preserve" font-family="CourierNewPSMT,Courier New" font-size="36.0" fill="#000000" transform="matrix(1.00, 0.00, -0.00, -1.00, 132.5, 578.5)">v</text><text xml:space="preserve" font-family="CourierNewPSMT,Courier New" font-size="36.0" fill="#000000" transform="matrix(1.00, 0.00, -0.00, -1.00, 154.1, 578.5)">a</text><text xml:space="preserve" font-family="CourierNewPSMT,Courier New" font-size="36.0" fill="#000000" transform="matrix(1.00, 0.00, -0.00, -1.00, 175.7, 578.5)">r</text><text xml:space="preserve" font-family="CourierNewPSMT,Courier New" font-size="36.0" fill="#000000" transform="matrix(1.00, 0.00, -0.00, -1.00, 197.4, 578.5)"> </text><text xml:space="preserve" font-family="CourierNewPSMT,Courier New" font-size="36.0" fill="#000000" transform="matrix(1.00, 0.00, -0.00, -1.00, 219.0, 578.5)">s</text><text xml:space="preserve" font-family="CourierNewPSMT,Courier New" font-size="36.0" fill="#000000" transform="matrix(1.00, 0.00, -0.00, -1.00, 240.6, 578.5)">i</text><text xml:space="preserve" font-family="CourierNewPSMT,Courier New" font-size="36.0" fill="#000000" transform="matrix(1.00, 0.00, -0.00, -1.00, 262.2, 578.5)">d</text><text xml:space="preserve" font-family="CourierNewPSMT,Courier New" font-size="36.0" fill="#000000" transform="matrix(1.00, 0.00, -0.00, -1.00, 283.8, 578.5)">e</text><text xml:space="preserve" font-family="CourierNewPSMT,Courier New" font-size="36.0" fill="#000000" transform="matrix(1.00, 0.00, -0.00, -1.00, 305.4, 578.5)">L</text><text xml:space="preserve" font-family="CourierNewPSMT,Courier New" font-size="36.0" fill="#000000" transform="matrix(1.00, 0.00, -0.00, -1.00, 327.0, 578.5)">e</text><text xml:space="preserve" font-family="CourierNewPSMT,Courier New" font-size="36.0" fill="#000000" transform="matrix(1.00, 0.00, -0.00, -1.00, 348.6, 578.5)">n</text><text xml:space="preserve" font-family="CourierNewPSMT,Courier New" font-size="36.0" fill="#000000" transform="matrix(1.00, 0.00, -0.00, -1.00, 370.2, 578.5)">g</text><text xml:space="preserve" font-family="CourierNewPSMT,Courier New" font-size="36.0" fill="#000000" transform="matrix(1.00, 0.00, -0.00, -1.00, 391.8, 578.5)">t</text><text xml:space="preserve" font-family="CourierNewPSMT,Courier New" font-size="36.0" fill="#000000" transform="matrix(1.00, 0.00, -0.00, -1.00, 413.4, 578.5)">h</text><text xml:space="preserve" font-family="CourierNewPSMT,Courier New" font-size="36.0" fill="#000000" transform="matrix(1.00, 0.00, -0.00, -1.00, 435.0, 578.5)">:</text><text xml:space="preserve" font-family="CourierNewPSMT,Courier New" font-size="36.0" fill="#000000" transform="matrix(1.00, 0.00, -0.00, -1.00, 456.6, 578.5)"> </text><text xml:space="preserve" font-family="Times-Bold,Times" font-weight="bold" font-size="36.0" fill="#000000" transform="matrix(1.00, 0.00, -0.00, -1.00, 478.2, 578.5)">D</text><text xml:space="preserve" font-family="Times-Bold,Times" font-weight="bold" font-size="36.0" fill="#000000" transform="matrix(1.00, 0.00, -0.00, -1.00, 504.2, 578.5)">o</text><text xml:space="preserve" font-family="Times-Bold,Times" font-weight="bold" font-size="36.0" fill="#000000" transform="matrix(1.00, 0.00, -0.00, -1.00, 522.2, 578.5)">u</text><text xml:space="preserve" font-family="Times-Bold,Times" font-weight="bold" font-size="36.0" fill="#000000" transform="matrix(1.00, 0.00, -0.00, -1.00, 542.2, 578.5)">b</text><text xml:space="preserve" font-family="Times-Bold,Times" font-weight="bold" font-size="36.0" fill="#000000" transform="matrix(1.00, 0.00, -0.00, -1.00, 562.3, 578.5)">l</text><text xml:space="preserve" font-family="Times-Bold,Times" font-weight="bold" font-size="36.0" fill="#000000" transform="matrix(1.00, 0.00, -0.00, -1.00, 572.2, 578.5)">e</text><text xml:space="preserve" font-family="Times-Bold,Times" font-weight="bold" font-size="36.0" fill="#000000" transform="matrix(1.00, 0.00, -0.00, -1.00, 588.2, 578.5)"> </text><text xml:space="preserve" font-family="CourierNewPSMT,Courier New" font-size="36.0" fill="#000000" transform="matrix(1.00, 0.00, -0.00, -1.00, 597.2, 578.5)">=</text><text xml:space="preserve" font-family="CourierNewPSMT,Courier New" font-size="36.0" fill="#000000" transform="matrix(1.00, 0.00, -0.00, -1.00, 618.8, 578.5)"> </text><text xml:space="preserve" font-family="CourierNewPSMT,Courier New" font-size="36.0" fill="#BE8F00" transform="matrix(1.00, 0.00, -0.00, -1.00, 640.4, 578.5)">0</text><text xml:space="preserve" font-family="CourierNewPSMT,Courier New" font-size="36.0" fill="#BE8F00" transform="matrix(1.00, 0.00, -0.00, -1.00, 662.0, 578.5)">.</text><text xml:space="preserve" font-family="CourierNewPSMT,Courier New" font-size="36.0" fill="#BE8F00" transform="matrix(1.00, 0.00, -0.00, -1.00, 683.6, 578.5)">0</text><text xml:space="preserve" font-family="Monaco,Monaco" font-size="36.0" fill="#BE8F00" transform="matrix(1.00, 0.00, -0.00, -1.00, 705.2, 578.5)"> </text><text xml:space="preserve" font-family="CourierNewPSMT,Courier New" font-size="36.0" fill="#BE8F00" transform="matrix(1.00, 0.00, -0.00, -1.00, 60.5, 537.5)"> </text><text xml:space="preserve" font-family="CourierNewPSMT,Courier New" font-size="36.0" fill="#BE8F00" transform="matrix(1.00, 0.00, -0.00, -1.00, 96.5, 537.5)"> </text><text xml:space="preserve" font-family="CourierNewPSMT,Courier New" font-size="36.0" fill="#000000" transform="matrix(1.00, 0.00, -0.00, -1.00, 132.5, 537.5)">.</text><text xml:space="preserve" font-family="CourierNewPSMT,Courier New" font-size="36.0" fill="#000000" transform="matrix(1.00, 0.00, -0.00, -1.00, 154.1, 537.5)">.</text><text xml:space="preserve" font-family="CourierNewPSMT,Courier New" font-size="36.0" fill="#000000" transform="matrix(1.00, 0.00, -0.00, -1.00, 175.7, 537.5)">.</text><text xml:space="preserve" font-family="Monaco,Monaco" font-size="36.0" fill="#000000" transform="matrix(1.00, 0.00, -0.00, -1.00, 197.3, 537.5)"> </text><text xml:space="preserve" font-family="CourierNewPSMT,Courier New" font-size="36.0" fill="#000000" transform="matrix(1.00, 0.00, -0.00, -1.00, 60.5, 492.7)"> </text><text xml:space="preserve" font-family="CourierNewPSMT,Courier New" font-size="36.0" fill="#000000" transform="matrix(1.00, 0.00, -0.00, -1.00, 96.5, 492.7)"> </text><text xml:space="preserve" font-family="CourierNewPSMT,Courier New" font-size="36.0" fill="#000000" transform="matrix(1.00, 0.00, -0.00, -1.00, 132.5, 492.7)">v</text><text xml:space="preserve" font-family="CourierNewPSMT,Courier New" font-size="36.0" fill="#000000" transform="matrix(1.00, 0.00, -0.00, -1.00, 154.1, 492.7)">a</text><text xml:space="preserve" font-family="CourierNewPSMT,Courier New" font-size="36.0" fill="#000000" transform="matrix(1.00, 0.00, -0.00, -1.00, 175.7, 492.7)">r</text><text xml:space="preserve" font-family="CourierNewPSMT,Courier New" font-size="36.0" fill="#000000" transform="matrix(1.00, 0.00, -0.00, -1.00, 197.4, 492.7)"> </text><text xml:space="preserve" font-family="CourierNewPSMT,Courier New" font-size="36.0" fill="#000000" transform="matrix(1.00, 0.00, -0.00, -1.00, 219.0, 492.7)">p</text><text xml:space="preserve" font-family="CourierNewPSMT,Courier New" font-size="36.0" fill="#000000" transform="matrix(1.00, 0.00, -0.00, -1.00, 240.6, 492.7)">e</text><text xml:space="preserve" font-family="CourierNewPSMT,Courier New" font-size="36.0" fill="#000000" transform="matrix(1.00, 0.00, -0.00, -1.00, 262.2, 492.7)">r</text><text xml:space="preserve" font-family="CourierNewPSMT,Courier New" font-size="36.0" fill="#000000" transform="matrix(1.00, 0.00, -0.00, -1.00, 283.8, 492.7)">i</text><text xml:space="preserve" font-family="CourierNewPSMT,Courier New" font-size="36.0" fill="#000000" transform="matrix(1.00, 0.00, -0.00, -1.00, 305.4, 492.7)">m</text><text xml:space="preserve" font-family="CourierNewPSMT,Courier New" font-size="36.0" fill="#000000" transform="matrix(1.00, 0.00, -0.00, -1.00, 327.0, 492.7)">e</text><text xml:space="preserve" font-family="CourierNewPSMT,Courier New" font-size="36.0" fill="#000000" transform="matrix(1.00, 0.00, -0.00, -1.00, 348.6, 492.7)">t</text><text xml:space="preserve" font-family="CourierNewPSMT,Courier New" font-size="36.0" fill="#000000" transform="matrix(1.00, 0.00, -0.00, -1.00, 370.2, 492.7)">e</text><text xml:space="preserve" font-family="CourierNewPSMT,Courier New" font-size="36.0" fill="#000000" transform="matrix(1.00, 0.00, -0.00, -1.00, 391.8, 492.7)">r</text><text xml:space="preserve" font-family="CourierNewPSMT,Courier New" font-size="36.0" fill="#000000" transform="matrix(1.00, 0.00, -0.00, -1.00, 413.4, 492.7)">:</text><text xml:space="preserve" font-family="CourierNewPSMT,Courier New" font-size="36.0" fill="#000000" transform="matrix(1.00, 0.00, -0.00, -1.00, 435.0, 492.7)"> </text><text xml:space="preserve" font-family="Times-Bold,Times" font-weight="bold" font-size="36.0" fill="#000000" transform="matrix(1.00, 0.00, -0.00, -1.00, 456.6, 492.7)">D</text><text xml:space="preserve" font-family="Times-Bold,Times" font-weight="bold" font-size="36.0" fill="#000000" transform="matrix(1.00, 0.00, -0.00, -1.00, 482.6, 492.7)">o</text><text xml:space="preserve" font-family="Times-Bold,Times" font-weight="bold" font-size="36.0" fill="#000000" transform="matrix(1.00, 0.00, -0.00, -1.00, 500.6, 492.7)">u</text><text xml:space="preserve" font-family="Times-Bold,Times" font-weight="bold" font-size="36.0" fill="#000000" transform="matrix(1.00, 0.00, -0.00, -1.00, 520.6, 492.7)">b</text><text xml:space="preserve" font-family="Times-Bold,Times" font-weight="bold" font-size="36.0" fill="#000000" transform="matrix(1.00, 0.00, -0.00, -1.00, 540.6, 492.7)">l</text><text xml:space="preserve" font-family="Times-Bold,Times" font-weight="bold" font-size="36.0" fill="#000000" transform="matrix(1.00, 0.00, -0.00, -1.00, 550.6, 492.7)">e</text><text xml:space="preserve" font-family="Times-Bold,Times" font-weight="bold" font-size="36.0" fill="#000000" transform="matrix(1.00, 0.00, -0.00, -1.00, 566.6, 492.7)"> </text><text xml:space="preserve" font-family="CourierNewPSMT,Courier New" font-size="36.0" fill="#000000" transform="matrix(1.00, 0.00, -0.00, -1.00, 575.6, 492.7)">{</text><text xml:space="preserve" font-family="Times-Roman,Times" font-size="36.0" fill="#000000" transform="matrix(1.00, 0.00, -0.00, -1.00, 597.2, 492.7)">	</text><text xml:space="preserve" font-family="Times-Roman,Times" font-size="36.0" fill="#000000" transform="matrix(1.00, 0.00, -0.00, -1.00, 625.2, 492.7)">
</text><text xml:space="preserve" font-family="Times-Roman,Times" font-size="36.0" fill="#000000" transform="matrix(1.00, 0.00, -0.00, -1.00, 625.2, 492.7)"></text><text xml:space="preserve" font-family="Times-Roman,Times" font-size="36.0" fill="#000000" transform="matrix(1.00, 0.00, -0.00, -1.00, 60.5, 435.9)">	</text><text xml:space="preserve" font-family="Times-Roman,Times" font-size="36.0" fill="#000000" transform="matrix(1.00, 0.00, -0.00, -1.00, 88.5, 435.9)">
</text><text xml:space="preserve" font-family="Times-Roman,Times" font-size="36.0" fill="#000000" transform="matrix(1.00, 0.00, -0.00, -1.00, 88.5, 435.9)"></text><text xml:space="preserve" font-family="Times-Roman,Times" font-size="36.0" fill="#000000" transform="matrix(1.00, 0.00, -0.00, -1.00, 88.5, 435.9)">	</text><text xml:space="preserve" font-family="Times-Roman,Times" font-size="36.0" fill="#000000" transform="matrix(1.00, 0.00, -0.00, -1.00, 116.5, 435.9)">
</text><text xml:space="preserve" font-family="Times-Roman,Times" font-size="36.0" fill="#000000" transform="matrix(1.00, 0.00, -0.00, -1.00, 116.5, 435.9)"></text><text xml:space="preserve" font-family="Times-Roman,Times" font-size="36.0" fill="#000000" transform="matrix(1.00, 0.00, -0.00, -1.00, 116.5, 435.9)">	</text><text xml:space="preserve" font-family="Times-Roman,Times" font-size="36.0" fill="#000000" transform="matrix(1.00, 0.00, -0.00, -1.00, 144.5, 435.9)">
</text><text xml:space="preserve" font-family="Times-Roman,Times" font-size="36.0" fill="#000000" transform="matrix(1.00, 0.00, -0.00, -1.00, 144.5, 435.9)"></text><text xml:space="preserve" font-family="Times-Roman,Times" font-size="36.0" fill="#000000" transform="matrix(1.00, 0.00, -0.00, -1.00, 144.5, 435.9)">	</text><text xml:space="preserve" font-family="Times-Roman,Times" font-size="36.0" fill="#000000" transform="matrix(1.00, 0.00, -0.00, -1.00, 172.5, 435.9)">
</text><text xml:space="preserve" font-family="Times-Roman,Times" font-size="36.0" fill="#000000" transform="matrix(1.00, 0.00, -0.00, -1.00, 172.5, 435.9)"></text><text xml:space="preserve" font-family="CourierNewPSMT,Courier New" font-size="36.0" fill="#006DBC" transform="matrix(1.00, 0.00, -0.00, -1.00, 204.5, 435.9)">g</text><text xml:space="preserve" font-family="CourierNewPSMT,Courier New" font-size="36.0" fill="#006DBC" transform="matrix(1.00, 0.00, -0.00, -1.00, 226.1, 435.9)">e</text><text xml:space="preserve" font-family="CourierNewPSMT,Courier New" font-size="36.0" fill="#006DBC" transform="matrix(1.00, 0.00, -0.00, -1.00, 247.7, 435.9)">t</text><text xml:space="preserve" font-family="CourierNewPSMT,Courier New" font-size="36.0" fill="#006DBC" transform="matrix(1.00, 0.00, -0.00, -1.00, 269.4, 435.9)"> </text><text xml:space="preserve" font-family="CourierNewPSMT,Courier New" font-size="36.0" fill="#000000" transform="matrix(1.00, 0.00, -0.00, -1.00, 290.9, 435.9)">{</text><text xml:space="preserve" font-family="Monaco,Monaco" font-size="36.0" fill="#000000" transform="matrix(1.00, 0.00, -0.00, -1.00, 312.6, 435.9)"> </text><text xml:space="preserve" font-family="CourierNewPSMT,Courier New" font-size="36.0" fill="#000000" transform="matrix(1.00, 0.00, -0.00, -1.00, 60.5, 391.1)"> </text><text xml:space="preserve" font-family="CourierNewPSMT,Courier New" font-size="36.0" fill="#000000" transform="matrix(1.00, 0.00, -0.00, -1.00, 96.5, 391.1)"> </text><text xml:space="preserve" font-family="CourierNewPSMT,Courier New" font-size="36.0" fill="#000000" transform="matrix(1.00, 0.00, -0.00, -1.00, 132.5, 391.1)"> </text><text xml:space="preserve" font-family="CourierNewPSMT,Courier New" font-size="36.0" fill="#000000" transform="matrix(1.00, 0.00, -0.00, -1.00, 168.5, 391.1)"> </text><text xml:space="preserve" font-family="CourierNewPSMT,Courier New" font-size="36.0" fill="#000000" transform="matrix(1.00, 0.00, -0.00, -1.00, 204.5, 391.1)"> </text><text xml:space="preserve" font-family="Times-Bold,Times" font-weight="bold" font-size="36.0" fill="#000000" transform="matrix(1.00, 0.00, -0.00, -1.00, 240.5, 391.1)">r</text><text xml:space="preserve" font-family="Times-Bold,Times" font-weight="bold" font-size="36.0" fill="#000000" transform="matrix(1.00, 0.00, -0.00, -1.00, 255.9, 391.1)">e</text><text xml:space="preserve" font-family="Times-Bold,Times" font-weight="bold" font-size="36.0" fill="#000000" transform="matrix(1.00, 0.00, -0.00, -1.00, 271.8, 391.1)">t</text><text xml:space="preserve" font-family="Times-Bold,Times" font-weight="bold" font-size="36.0" fill="#000000" transform="matrix(1.00, 0.00, -0.00, -1.00, 283.8, 391.1)">u</text><text xml:space="preserve" font-family="Times-Bold,Times" font-weight="bold" font-size="36.0" fill="#000000" transform="matrix(1.00, 0.00, -0.00, -1.00, 303.9, 391.1)">r</text><text xml:space="preserve" font-family="Times-Bold,Times" font-weight="bold" font-size="36.0" fill="#000000" transform="matrix(1.00, 0.00, -0.00, -1.00, 319.8, 391.1)">n</text><text xml:space="preserve" font-family="Times-Bold,Times" font-weight="bold" font-size="36.0" fill="#000000" transform="matrix(1.00, 0.00, -0.00, -1.00, 339.9, 391.1)"> </text><text xml:space="preserve" font-family="CourierNewPSMT,Courier New" font-size="36.0" fill="#BE8F00" transform="matrix(1.00, 0.00, -0.00, -1.00, 348.9, 391.1)">3</text><text xml:space="preserve" font-family="CourierNewPSMT,Courier New" font-size="36.0" fill="#BE8F00" transform="matrix(1.00, 0.00, -0.00, -1.00, 370.5, 391.1)">.</text><text xml:space="preserve" font-family="CourierNewPSMT,Courier New" font-size="36.0" fill="#BE8F00" transform="matrix(1.00, 0.00, -0.00, -1.00, 392.1, 391.1)">0</text><text xml:space="preserve" font-family="CourierNewPSMT,Courier New" font-size="36.0" fill="#BE8F00" transform="matrix(1.00, 0.00, -0.00, -1.00, 413.7, 391.1)"> </text><text xml:space="preserve" font-family="CourierNewPSMT,Courier New" font-size="36.0" fill="#000000" transform="matrix(1.00, 0.00, -0.00, -1.00, 435.3, 391.1)">*</text><text xml:space="preserve" font-family="CourierNewPSMT,Courier New" font-size="36.0" fill="#000000" transform="matrix(1.00, 0.00, -0.00, -1.00, 456.9, 391.1)"> </text><text xml:space="preserve" font-family="CourierNewPSMT,Courier New" font-size="36.0" fill="#000000" transform="matrix(1.00, 0.00, -0.00, -1.00, 478.5, 391.1)">s</text><text xml:space="preserve" font-family="CourierNewPSMT,Courier New" font-size="36.0" fill="#000000" transform="matrix(1.00, 0.00, -0.00, -1.00, 500.1, 391.1)">i</text><text xml:space="preserve" font-family="CourierNewPSMT,Courier New" font-size="36.0" fill="#000000" transform="matrix(1.00, 0.00, -0.00, -1.00, 521.7, 391.1)">d</text><text xml:space="preserve" font-family="CourierNewPSMT,Courier New" font-size="36.0" fill="#000000" transform="matrix(1.00, 0.00, -0.00, -1.00, 543.3, 391.1)">e</text><text xml:space="preserve" font-family="CourierNewPSMT,Courier New" font-size="36.0" fill="#000000" transform="matrix(1.00, 0.00, -0.00, -1.00, 564.9, 391.1)">L</text><text xml:space="preserve" font-family="CourierNewPSMT,Courier New" font-size="36.0" fill="#000000" transform="matrix(1.00, 0.00, -0.00, -1.00, 586.5, 391.1)">e</text><text xml:space="preserve" font-family="CourierNewPSMT,Courier New" font-size="36.0" fill="#000000" transform="matrix(1.00, 0.00, -0.00, -1.00, 608.1, 391.1)">n</text><text xml:space="preserve" font-family="CourierNewPSMT,Courier New" font-size="36.0" fill="#000000" transform="matrix(1.00, 0.00, -0.00, -1.00, 629.7, 391.1)">g</text><text xml:space="preserve" font-family="CourierNewPSMT,Courier New" font-size="36.0" fill="#000000" transform="matrix(1.00, 0.00, -0.00, -1.00, 651.4, 391.1)">t</text><text xml:space="preserve" font-family="CourierNewPSMT,Courier New" font-size="36.0" fill="#000000" transform="matrix(1.00, 0.00, -0.00, -1.00, 673.0, 391.1)">h</text><text xml:space="preserve" font-family="Times-Roman,Times" font-size="36.0" fill="#000000" transform="matrix(1.00, 0.00, -0.00, -1.00, 694.5, 391.1)">	</text><text xml:space="preserve" font-family="Times-Roman,Times" font-size="36.0" fill="#000000" transform="matrix(1.00, 0.00, -0.00, -1.00, 722.5, 391.1)">
</text><text xml:space="preserve" font-family="Times-Roman,Times" font-size="36.0" fill="#000000" transform="matrix(1.00, 0.00, -0.00, -1.00, 722.5, 391.1)"></text><text xml:space="preserve" font-family="Times-Roman,Times" font-size="36.0" fill="#006DBC" transform="matrix(1.00, 0.00, -0.00, -1.00, 60.5, 334.3)">	</text><text xml:space="preserve" font-family="Times-Roman,Times" font-size="36.0" fill="#006DBC" transform="matrix(1.00, 0.00, -0.00, -1.00, 88.5, 334.3)">
</text><text xml:space="preserve" font-family="Times-Roman,Times" font-size="36.0" fill="#006DBC" transform="matrix(1.00, 0.00, -0.00, -1.00, 88.5, 334.3)"></text><text xml:space="preserve" font-family="Times-Roman,Times" font-size="36.0" fill="#006DBC" transform="matrix(1.00, 0.00, -0.00, -1.00, 88.5, 334.3)">	</text><text xml:space="preserve" font-family="Times-Roman,Times" font-size="36.0" fill="#006DBC" transform="matrix(1.00, 0.00, -0.00, -1.00, 116.5, 334.3)">
</text><text xml:space="preserve" font-family="Times-Roman,Times" font-size="36.0" fill="#006DBC" transform="matrix(1.00, 0.00, -0.00, -1.00, 116.5, 334.3)"></text><text xml:space="preserve" font-family="Times-Roman,Times" font-size="36.0" fill="#006DBC" transform="matrix(1.00, 0.00, -0.00, -1.00, 116.5, 334.3)">	</text><text xml:space="preserve" font-family="Times-Roman,Times" font-size="36.0" fill="#006DBC" transform="matrix(1.00, 0.00, -0.00, -1.00, 144.5, 334.3)">
</text><text xml:space="preserve" font-family="Times-Roman,Times" font-size="36.0" fill="#006DBC" transform="matrix(1.00, 0.00, -0.00, -1.00, 144.5, 334.3)"></text><text xml:space="preserve" font-family="Times-Roman,Times" font-size="36.0" fill="#006DBC" transform="matrix(1.00, 0.00, -0.00, -1.00, 144.5, 334.3)">	</text><text xml:space="preserve" font-family="Times-Roman,Times" font-size="36.0" fill="#006DBC" transform="matrix(1.00, 0.00, -0.00, -1.00, 172.5, 334.3)">
</text><text xml:space="preserve" font-family="Times-Roman,Times" font-size="36.0" fill="#006DBC" transform="matrix(1.00, 0.00, -0.00, -1.00, 172.5, 334.3)"></text><text xml:space="preserve" font-family="CourierNewPSMT,Courier New" font-size="36.0" fill="#000000" transform="matrix(1.00, 0.00, -0.00, -1.00, 204.5, 334.3)">}</text><text xml:space="preserve" font-family="Monaco,Monaco" font-size="36.0" fill="#000000" transform="matrix(1.00, 0.00, -0.00, -1.00, 226.1, 334.3)"> </text><text xml:space="preserve" font-family="CourierNewPSMT,Courier New" font-size="36.0" fill="#000000" transform="matrix(1.00, 0.00, -0.00, -1.00, 60.5, 293.3)"> </text><text xml:space="preserve" font-family="CourierNewPSMT,Courier New" font-size="36.0" fill="#000000" transform="matrix(1.00, 0.00, -0.00, -1.00, 96.5, 293.3)"> </text><text xml:space="preserve" font-family="CourierNewPSMT,Courier New" font-size="36.0" fill="#000000" transform="matrix(1.00, 0.00, -0.00, -1.00, 132.5, 293.3)"> </text><text xml:space="preserve" font-family="CourierNewPSMT,Courier New" font-size="36.0" fill="#000000" transform="matrix(1.00, 0.00, -0.00, -1.00, 168.5, 293.3)"> </text><text xml:space="preserve" font-family="CourierNewPSMT,Courier New" font-size="36.0" fill="#006DBC" transform="matrix(1.00, 0.00, -0.00, -1.00, 204.5, 293.3)">s</text><text xml:space="preserve" font-family="CourierNewPSMT,Courier New" font-size="36.0" fill="#006DBC" transform="matrix(1.00, 0.00, -0.00, -1.00, 226.1, 293.3)">e</text><text xml:space="preserve" font-family="CourierNewPSMT,Courier New" font-size="36.0" fill="#006DBC" transform="matrix(1.00, 0.00, -0.00, -1.00, 247.7, 293.3)">t</text><text xml:space="preserve" font-family="CourierNewPSMT,Courier New" font-size="36.0" fill="#006DBC" transform="matrix(1.00, 0.00, -0.00, -1.00, 269.4, 293.3)"> </text><text xml:space="preserve" font-family="CourierNewPSMT,Courier New" font-size="36.0" fill="#000000" transform="matrix(1.00, 0.00, -0.00, -1.00, 290.9, 293.3)">{</text><text xml:space="preserve" font-family="Times-Roman,Times" font-size="36.0" fill="#000000" transform="matrix(1.00, 0.00, -0.00, -1.00, 312.6, 293.3)">	</text><text xml:space="preserve" font-family="Times-Roman,Times" font-size="36.0" fill="#000000" transform="matrix(1.00, 0.00, -0.00, -1.00, 340.6, 293.3)">
</text><text xml:space="preserve" font-family="Times-Roman,Times" font-size="36.0" fill="#000000" transform="matrix(1.00, 0.00, -0.00, -1.00, 340.6, 293.3)"></text><text xml:space="preserve" font-family="CourierNewPSMT,Courier New" font-size="36.0" fill="#000000" transform="matrix(1.00, 0.00, -0.00, -1.00, 60.5, 240.3)"> </text><text xml:space="preserve" font-family="CourierNewPSMT,Courier New" font-size="36.0" fill="#000000" transform="matrix(1.00, 0.00, -0.00, -1.00, 82.1, 240.3)"> </text><text xml:space="preserve" font-family="CourierNewPSMT,Courier New" font-size="36.0" fill="#000000" transform="matrix(1.00, 0.00, -0.00, -1.00, 103.7, 240.3)"> </text><text xml:space="preserve" font-family="CourierNewPSMT,Courier New" font-size="36.0" fill="#000000" transform="matrix(1.00, 0.00, -0.00, -1.00, 125.4, 240.3)"> </text><text xml:space="preserve" font-family="CourierNewPSMT,Courier New" font-size="36.0" fill="#000000" transform="matrix(1.00, 0.00, -0.00, -1.00, 147.0, 240.3)"> </text><text xml:space="preserve" font-family="CourierNewPSMT,Courier New" font-size="36.0" fill="#000000" transform="matrix(1.00, 0.00, -0.00, -1.00, 168.6, 240.3)"> </text><text xml:space="preserve" font-family="CourierNewPSMT,Courier New" font-size="36.0" fill="#000000" transform="matrix(1.00, 0.00, -0.00, -1.00, 204.5, 240.3)"> </text><text xml:space="preserve" font-family="CourierNewPSMT,Courier New" font-size="36.0" fill="#000000" transform="matrix(1.00, 0.00, -0.00, -1.00, 240.5, 240.3)">s</text><text xml:space="preserve" font-family="CourierNewPSMT,Courier New" font-size="36.0" fill="#000000" transform="matrix(1.00, 0.00, -0.00, -1.00, 262.2, 240.3)">i</text><text xml:space="preserve" font-family="CourierNewPSMT,Courier New" font-size="36.0" fill="#000000" transform="matrix(1.00, 0.00, -0.00, -1.00, 283.8, 240.3)">d</text><text xml:space="preserve" font-family="CourierNewPSMT,Courier New" font-size="36.0" fill="#000000" transform="matrix(1.00, 0.00, -0.00, -1.00, 305.4, 240.3)">e</text><text xml:space="preserve" font-family="CourierNewPSMT,Courier New" font-size="36.0" fill="#000000" transform="matrix(1.00, 0.00, -0.00, -1.00, 327.0, 240.3)">L</text><text xml:space="preserve" font-family="CourierNewPSMT,Courier New" font-size="36.0" fill="#000000" transform="matrix(1.00, 0.00, -0.00, -1.00, 348.6, 240.3)">e</text><text xml:space="preserve" font-family="CourierNewPSMT,Courier New" font-size="36.0" fill="#000000" transform="matrix(1.00, 0.00, -0.00, -1.00, 370.2, 240.3)">n</text><text xml:space="preserve" font-family="CourierNewPSMT,Courier New" font-size="36.0" fill="#000000" transform="matrix(1.00, 0.00, -0.00, -1.00, 391.8, 240.3)">g</text><text xml:space="preserve" font-family="CourierNewPSMT,Courier New" font-size="36.0" fill="#000000" transform="matrix(1.00, 0.00, -0.00, -1.00, 413.4, 240.3)">t</text><text xml:space="preserve" font-family="CourierNewPSMT,Courier New" font-size="36.0" fill="#000000" transform="matrix(1.00, 0.00, -0.00, -1.00, 435.0, 240.3)">h</text><text xml:space="preserve" font-family="CourierNewPSMT,Courier New" font-size="36.0" fill="#000000" transform="matrix(1.00, 0.00, -0.00, -1.00, 456.6, 240.3)"> </text><text xml:space="preserve" font-family="CourierNewPSMT,Courier New" font-size="36.0" fill="#000000" transform="matrix(1.00, 0.00, -0.00, -1.00, 478.2, 240.3)">=</text><text xml:space="preserve" font-family="CourierNewPSMT,Courier New" font-size="36.0" fill="#000000" transform="matrix(1.00, 0.00, -0.00, -1.00, 499.8, 240.3)"> </text><text xml:space="preserve" font-family="CourierNewPSMT,Courier New" font-size="36.0" fill="#000000" transform="matrix(1.00, 0.00, -0.00, -1.00, 521.4, 240.3)">n</text><text xml:space="preserve" font-family="CourierNewPSMT,Courier New" font-size="36.0" fill="#000000" transform="matrix(1.00, 0.00, -0.00, -1.00, 543.0, 240.3)">e</text><text xml:space="preserve" font-family="CourierNewPSMT,Courier New" font-size="36.0" fill="#000000" transform="matrix(1.00, 0.00, -0.00, -1.00, 564.7, 240.3)">w</text><text xml:space="preserve" font-family="CourierNewPSMT,Courier New" font-size="36.0" fill="#000000" transform="matrix(1.00, 0.00, -0.00, -1.00, 586.3, 240.3)">V</text><text xml:space="preserve" font-family="CourierNewPSMT,Courier New" font-size="36.0" fill="#000000" transform="matrix(1.00, 0.00, -0.00, -1.00, 607.9, 240.3)">a</text><text xml:space="preserve" font-family="CourierNewPSMT,Courier New" font-size="36.0" fill="#000000" transform="matrix(1.00, 0.00, -0.00, -1.00, 629.5, 240.3)">l</text><text xml:space="preserve" font-family="CourierNewPSMT,Courier New" font-size="36.0" fill="#000000" transform="matrix(1.00, 0.00, -0.00, -1.00, 651.1, 240.3)">u</text><text xml:space="preserve" font-family="CourierNewPSMT,Courier New" font-size="36.0" fill="#000000" transform="matrix(1.00, 0.00, -0.00, -1.00, 672.7, 240.3)">e</text><text xml:space="preserve" font-family="CourierNewPSMT,Courier New" font-size="36.0" fill="#000000" transform="matrix(1.00, 0.00, -0.00, -1.00, 694.3, 240.3)"> </text><text xml:space="preserve" font-family="CourierNewPSMT,Courier New" font-size="36.0" fill="#000000" transform="matrix(1.00, 0.00, -0.00, -1.00, 715.9, 240.3)">/</text><text xml:space="preserve" font-family="CourierNewPSMT,Courier New" font-size="36.0" fill="#000000" transform="matrix(1.00, 0.00, -0.00, -1.00, 737.5, 240.3)"> </text><text xml:space="preserve" font-family="CourierNewPSMT,Courier New" font-size="36.0" fill="#BE8F00" transform="matrix(1.00, 0.00, -0.00, -1.00, 759.0, 240.3)">3</text><text xml:space="preserve" font-family="CourierNewPSMT,Courier New" font-size="36.0" fill="#BE8F00" transform="matrix(1.00, 0.00, -0.00, -1.00, 780.6, 240.3)">.</text><text xml:space="preserve" font-family="CourierNewPSMT,Courier New" font-size="36.0" fill="#BE8F00" transform="matrix(1.00, 0.00, -0.00, -1.00, 802.2, 240.3)">0</text><text xml:space="preserve" font-family="CourierNewPSMT,Courier New" font-size="36.0" fill="#BE8F00" transform="matrix(1.00, 0.00, -0.00, -1.00, 823.8, 240.3)"> </text><text xml:space="preserve" font-family="CourierNewPSMT,Courier New" font-size="36.0" fill="#000000" transform="matrix(1.00, 0.00, -0.00, -1.00, 60.5, 199.3)"> </text><text xml:space="preserve" font-family="CourierNewPSMT,Courier New" font-size="36.0" fill="#000000" transform="matrix(1.00, 0.00, -0.00, -1.00, 82.1, 199.3)"> </text><text xml:space="preserve" font-family="CourierNewPSMT,Courier New" font-size="36.0" fill="#000000" transform="matrix(1.00, 0.00, -0.00, -1.00, 103.7, 199.3)"> </text><text xml:space="preserve" font-family="CourierNewPSMT,Courier New" font-size="36.0" fill="#000000" transform="matrix(1.00, 0.00, -0.00, -1.00, 125.4, 199.3)"> </text><text xml:space="preserve" font-family="CourierNewPSMT,Courier New" font-size="36.0" fill="#000000" transform="matrix(1.00, 0.00, -0.00, -1.00, 132.6, 199.3)"> </text><text xml:space="preserve" font-family="CourierNewPSMT,Courier New" font-size="36.0" fill="#000000" transform="matrix(1.00, 0.00, -0.00, -1.00, 168.6, 199.3)"> </text><text xml:space="preserve" font-family="CourierNewPSMT,Courier New" font-size="36.0" fill="#000000" transform="matrix(1.00, 0.00, -0.00, -1.00, 204.5, 199.3)">}</text><text xml:space="preserve" font-family="CourierNewPSMT,Courier New" font-size="36.0" fill="#000000" transform="matrix(1.00, 0.00, -0.00, -1.00, 226.1, 199.3)"> </text><text xml:space="preserve" font-family="CourierNewPSMT,Courier New" font-size="36.0" fill="#000000" transform="matrix(1.00, 0.00, -0.00, -1.00, 60.5, 158.3)"> </text><text xml:space="preserve" font-family="CourierNewPSMT,Courier New" font-size="36.0" fill="#000000" transform="matrix(1.00, 0.00, -0.00, -1.00, 96.5, 158.3)"> </text><text xml:space="preserve" font-family="CourierNewPSMT,Courier New" font-size="36.0" fill="#000000" transform="matrix(1.00, 0.00, -0.00, -1.00, 132.5, 158.3)">}</text><text xml:space="preserve" font-family="Times-Roman,Times" font-size="36.0" fill="#000000" transform="matrix(1.00, 0.00, -0.00, -1.00, 154.1, 158.3)">	</text><text xml:space="preserve" font-family="Times-Roman,Times" font-size="36.0" fill="#000000" transform="matrix(1.00, 0.00, -0.00, -1.00, 182.1, 158.3)">
</text><text xml:space="preserve" font-family="Times-Roman,Times" font-size="36.0" fill="#000000" transform="matrix(1.00, 0.00, -0.00, -1.00, 182.1, 158.3)"></text><text xml:space="preserve" font-family="Times-Roman,Times" font-size="36.0" fill="#000000" transform="matrix(1.00, 0.00, -0.00, -1.00, 60.5, 101.5)">	</text><text xml:space="preserve" font-family="Times-Roman,Times" font-size="36.0" fill="#000000" transform="matrix(1.00, 0.00, -0.00, -1.00, 88.5, 101.5)">
</text><text xml:space="preserve" font-family="Times-Roman,Times" font-size="36.0" fill="#000000" transform="matrix(1.00, 0.00, -0.00, -1.00, 88.5, 101.5)"></text><text xml:space="preserve" font-family="Times-Roman,Times" font-size="36.0" fill="#000000" transform="matrix(1.00, 0.00, -0.00, -1.00, 88.5, 101.5)">	</text><text xml:space="preserve" font-family="Times-Roman,Times" font-size="36.0" fill="#000000" transform="matrix(1.00, 0.00, -0.00, -1.00, 116.5, 101.5)">
</text><text xml:space="preserve" font-family="Times-Roman,Times" font-size="36.0" fill="#000000" transform="matrix(1.00, 0.00, -0.00, -1.00, 116.5, 101.5)"></text><text xml:space="preserve" font-family="CourierNewPSMT,Courier New" font-size="36.0" fill="#000000" transform="matrix(1.00, 0.00, -0.00, -1.00, 132.5, 101.5)">.</text><text xml:space="preserve" font-family="CourierNewPSMT,Courier New" font-size="36.0" fill="#000000" transform="matrix(1.00, 0.00, -0.00, -1.00, 154.1, 101.5)">.</text><text xml:space="preserve" font-family="CourierNewPSMT,Courier New" font-size="36.0" fill="#000000" transform="matrix(1.00, 0.00, -0.00, -1.00, 175.7, 101.5)">.</text><text xml:space="preserve" font-family="CourierNewPSMT,Courier New" font-size="36.0" fill="#000000" transform="matrix(1.00, 0.00, -0.00, -1.00, 197.4, 101.5)"> </text><text xml:space="preserve" font-family="CourierNewPSMT,Courier New" font-size="36.0" fill="#000000" transform="matrix(1.00, 0.00, -0.00, -1.00, 218.9, 101.5)"> </text><text xml:space="preserve" font-family="CourierNewPSMT,Courier New" font-size="36.0" fill="#000000" transform="matrix(1.00, 0.00, -0.00, -1.00, 60.5, 48.5)">}</text><text xml:space="preserve" font-family="Times-Roman,Times" font-size="36.0" fill="#000000" transform="matrix(1.00, 0.00, -0.00, -1.00, 82.1, 48.5)">	</text><text xml:space="preserve" font-family="Times-Roman,Times" font-size="36.0" fill="#000000" transform="matrix(1.00, 0.00, -0.00, -1.00, 110.1, 48.5)">
</text><text xml:space="preserve" font-family="Times-Roman,Times" font-size="36.0" fill="#000000" transform="matrix(1.00, 0.00, -0.00, -1.00, 110.1, 48.5)"></text><text xml:space="preserve" font-family="Helvetica-Light,Helvetica" font-size="48.0" fill="#000000" transform="matrix(1.00, 0.00, -0.00, -1.00, 311.0, 715.0)">s</text><text xml:space="preserve" font-family="Helvetica-Light,Helvetica" font-size="48.0" fill="#000000" transform="matrix(1.00, 0.00, -0.00, -1.00, 335.0, 715.0)">e</text><text xml:space="preserve" font-family="Helvetica-Light,Helvetica" font-size="48.0" fill="#000000" transform="matrix(1.00, 0.00, -0.00, -1.00, 361.7, 715.0)">t</text><text xml:space="preserve" font-family="Helvetica-Light,Helvetica" font-size="48.0" fill="#000000" transform="matrix(1.00, 0.00, -0.00, -1.00, 375.1, 715.0)">t</text><text xml:space="preserve" font-family="Helvetica-Light,Helvetica" font-size="48.0" fill="#000000" transform="matrix(1.00, 0.00, -0.00, -1.00, 388.4, 715.0)">e</text><text xml:space="preserve" font-family="Helvetica-Light,Helvetica" font-size="48.0" fill="#000000" transform="matrix(1.00, 0.00, -0.00, -1.00, 415.1, 715.0)">r</text><text xml:space="preserve" font-family="Helvetica-Light,Helvetica" font-size="48.0" fill="#000000" transform="matrix(1.00, 0.00, -0.00, -1.00, 431.1, 715.0)"> </text><text xml:space="preserve" font-family="Helvetica-Light,Helvetica" font-size="48.0" fill="#000000" transform="matrix(1.00, 0.00, -0.00, -1.00, 444.4, 715.0)">&amp;</text><text xml:space="preserve" font-family="Helvetica-Light,Helvetica" font-size="48.0" fill="#000000" transform="matrix(1.00, 0.00, -0.00, -1.00, 476.4, 715.0)">&amp;</text><text xml:space="preserve" font-family="Helvetica-Light,Helvetica" font-size="48.0" fill="#000000" transform="matrix(1.00, 0.00, -0.00, -1.00, 508.4, 715.0)"> </text><text xml:space="preserve" font-family="Helvetica-Light,Helvetica" font-size="48.0" fill="#000000" transform="matrix(1.00, 0.00, -0.00, -1.00, 521.8, 715.0)">g</text><text xml:space="preserve" font-family="Helvetica-Light,Helvetica" font-size="48.0" fill="#000000" transform="matrix(1.00, 0.00, -0.00, -1.00, 551.1, 715.0)">e</text><text xml:space="preserve" font-family="Helvetica-Light,Helvetica" font-size="48.0" fill="#000000" transform="matrix(1.00, 0.00, -0.00, -1.00, 577.8, 715.0)">t</text><text xml:space="preserve" font-family="Helvetica-Light,Helvetica" font-size="48.0" fill="#000000" transform="matrix(1.00, 0.00, -0.00, -1.00, 591.2, 715.0)">t</text><text xml:space="preserve" font-family="Helvetica-Light,Helvetica" font-size="48.0" fill="#000000" transform="matrix(1.00, 0.00, -0.00, -1.00, 604.5, 715.0)">e</text><text xml:space="preserve" font-family="Helvetica-Light,Helvetica" font-size="48.0" fill="#000000" transform="matrix(1.00, 0.00, -0.00, -1.00, 631.2, 715.0)">r</text></g></svg>