<?xml version="1.0" encoding="UTF-8" standalone="no"?><svg xmlns="http://www.w3.org/2000/svg" xmlns:xlink="http://www.w3.org/1999/xlink" clip-rule="evenodd" stroke-miterlimit="10" viewBox="0 0 1024 768"><desc>SVG generated by Keynote</desc><defs></defs><g transform="matrix(1.00, 0.00, -0.00, -1.00, 0.0, 768.0)"><g><clipPath id="clip0x7fbe4433a4a0"><path d="M 0.0 768.0 L 1024.0 768.0 L 1024.0 0.0 L 0.0 0.0 Z M 0.0 768.0 "></path></clipPath><g clip-path="url(#clip0x7fbe4433a4a0)"><image xlink:href="../../E942948C-BC6A-49D1-B3B9-4DAB4A4FD6CB/assets/527288347077A8BC66C9A53B775387A8.jpeg" width="2048.00" height="1536.00" transform="matrix(0.50, 0.00, -0.00, -0.50, 0.0, 768.0)"></image></g></g><text xml:space="preserve" font-family="Helvetica-Light,Helvetica" font-size="48.0" fill="#000000" transform="matrix(1.00, 0.00, -0.00, -1.00, 421.3, 634.0)">O</text><text xml:space="preserve" font-family="Helvetica-Light,Helvetica" font-size="48.0" fill="#000000" transform="matrix(1.00, 0.00, -0.00, -1.00, 458.6, 634.0)">p</text><text xml:space="preserve" font-family="Helvetica-Light,Helvetica" font-size="48.0" fill="#000000" transform="matrix(1.00, 0.00, -0.00, -1.00, 488.0, 634.0)">t</text><text xml:space="preserve" font-family="Helvetica-Light,Helvetica" font-size="48.0" fill="#000000" transform="matrix(1.00, 0.00, -0.00, -1.00, 501.3, 634.0)">i</text><text xml:space="preserve" font-family="Helvetica-Light,Helvetica" font-size="48.0" fill="#000000" transform="matrix(1.00, 0.00, -0.00, -1.00, 512.0, 634.0)">o</text><text xml:space="preserve" font-family="Helvetica-Light,Helvetica" font-size="48.0" fill="#000000" transform="matrix(1.00, 0.00, -0.00, -1.00, 538.7, 634.0)">n</text><text xml:space="preserve" font-family="Helvetica-Light,Helvetica" font-size="48.0" fill="#000000" transform="matrix(1.00, 0.00, -0.00, -1.00, 565.4, 634.0)">a</text><text xml:space="preserve" font-family="Helvetica-Light,Helvetica" font-size="48.0" fill="#000000" transform="matrix(1.00, 0.00, -0.00, -1.00, 592.0, 634.0)">l</text><text xml:space="preserve" font-family="CourierNewPSMT,Courier New" font-size="36.0" fill="#000000" transform="matrix(1.00, 0.00, -0.00, -1.00, 68.6, 490.2)">v</text><text xml:space="preserve" font-family="CourierNewPSMT,Courier New" font-size="36.0" fill="#000000" transform="matrix(1.00, 0.00, -0.00, -1.00, 90.2, 490.2)">a</text><text xml:space="preserve" font-family="CourierNewPSMT,Courier New" font-size="36.0" fill="#000000" transform="matrix(1.00, 0.00, -0.00, -1.00, 111.8, 490.2)">r</text><text xml:space="preserve" font-family="CourierNewPSMT,Courier New" font-size="36.0" fill="#000000" transform="matrix(1.00, 0.00, -0.00, -1.00, 133.4, 490.2)"> </text><text xml:space="preserve" font-family="CourierNewPSMT,Courier New" font-size="36.0" fill="#000000" transform="matrix(1.00, 0.00, -0.00, -1.00, 155.1, 490.2)">o</text><text xml:space="preserve" font-family="CourierNewPSMT,Courier New" font-size="36.0" fill="#000000" transform="matrix(1.00, 0.00, -0.00, -1.00, 176.7, 490.2)">p</text><text xml:space="preserve" font-family="CourierNewPSMT,Courier New" font-size="36.0" fill="#000000" transform="matrix(1.00, 0.00, -0.00, -1.00, 198.3, 490.2)">t</text><text xml:space="preserve" font-family="CourierNewPSMT,Courier New" font-size="36.0" fill="#000000" transform="matrix(1.00, 0.00, -0.00, -1.00, 219.9, 490.2)">i</text><text xml:space="preserve" font-family="CourierNewPSMT,Courier New" font-size="36.0" fill="#000000" transform="matrix(1.00, 0.00, -0.00, -1.00, 241.5, 490.2)">o</text><text xml:space="preserve" font-family="CourierNewPSMT,Courier New" font-size="36.0" fill="#000000" transform="matrix(1.00, 0.00, -0.00, -1.00, 263.1, 490.2)">n</text><text xml:space="preserve" font-family="CourierNewPSMT,Courier New" font-size="36.0" fill="#000000" transform="matrix(1.00, 0.00, -0.00, -1.00, 284.7, 490.2)">a</text><text xml:space="preserve" font-family="CourierNewPSMT,Courier New" font-size="36.0" fill="#000000" transform="matrix(1.00, 0.00, -0.00, -1.00, 306.3, 490.2)">l</text><text xml:space="preserve" font-family="CourierNewPSMT,Courier New" font-size="36.0" fill="#000000" transform="matrix(1.00, 0.00, -0.00, -1.00, 327.9, 490.2)">N</text><text xml:space="preserve" font-family="CourierNewPSMT,Courier New" font-size="36.0" fill="#000000" transform="matrix(1.00, 0.00, -0.00, -1.00, 349.5, 490.2)">a</text><text xml:space="preserve" font-family="CourierNewPSMT,Courier New" font-size="36.0" fill="#000000" transform="matrix(1.00, 0.00, -0.00, -1.00, 371.1, 490.2)">m</text><text xml:space="preserve" font-family="CourierNewPSMT,Courier New" font-size="36.0" fill="#000000" transform="matrix(1.00, 0.00, -0.00, -1.00, 392.7, 490.2)">e</text><text xml:space="preserve" font-family="CourierNewPSMT,Courier New" font-size="36.0" fill="#000000" transform="matrix(1.00, 0.00, -0.00, -1.00, 414.3, 490.2)">:</text><text xml:space="preserve" font-family="CourierNewPSMT,Courier New" font-size="36.0" fill="#000000" transform="matrix(1.00, 0.00, -0.00, -1.00, 435.9, 490.2)"> </text><text xml:space="preserve" font-family="CourierNewPSMT,Courier New" font-size="36.0" fill="#000000" transform="matrix(1.00, 0.00, -0.00, -1.00, 457.6, 490.2)">S</text><text xml:space="preserve" font-family="CourierNewPSMT,Courier New" font-size="36.0" fill="#000000" transform="matrix(1.00, 0.00, -0.00, -1.00, 479.2, 490.2)">t</text><text xml:space="preserve" font-family="CourierNewPSMT,Courier New" font-size="36.0" fill="#000000" transform="matrix(1.00, 0.00, -0.00, -1.00, 500.8, 490.2)">r</text><text xml:space="preserve" font-family="CourierNewPSMT,Courier New" font-size="36.0" fill="#000000" transform="matrix(1.00, 0.00, -0.00, -1.00, 522.4, 490.2)">i</text><text xml:space="preserve" font-family="CourierNewPSMT,Courier New" font-size="36.0" fill="#000000" transform="matrix(1.00, 0.00, -0.00, -1.00, 544.0, 490.2)">n</text><text xml:space="preserve" font-family="CourierNewPSMT,Courier New" font-size="36.0" fill="#000000" transform="matrix(1.00, 0.00, -0.00, -1.00, 565.6, 490.2)">g</text><text xml:space="preserve" font-family="CourierNewPSMT,Courier New" font-size="36.0" fill="#000000" transform="matrix(1.00, 0.00, -0.00, -1.00, 587.2, 490.2)">?</text><text xml:space="preserve" font-family="CourierNewPSMT,Courier New" font-size="36.0" fill="#000000" transform="matrix(1.00, 0.00, -0.00, -1.00, 608.8, 490.2)"> </text><text xml:space="preserve" font-family="CourierNewPSMT,Courier New" font-size="36.0" fill="#000000" transform="matrix(1.00, 0.00, -0.00, -1.00, 630.4, 490.2)">=</text><text xml:space="preserve" font-family="CourierNewPSMT,Courier New" font-size="36.0" fill="#000000" transform="matrix(1.00, 0.00, -0.00, -1.00, 652.0, 490.2)"> </text><text xml:space="preserve" font-family="CourierNewPSMT,Courier New" font-size="36.0" fill="#CC1C00" transform="matrix(1.00, 0.00, -0.00, -1.00, 673.5, 490.2)">"</text><text xml:space="preserve" font-family="CourierNewPSMT,Courier New" font-size="36.0" fill="#CC1C00" transform="matrix(1.00, 0.00, -0.00, -1.00, 695.1, 490.2)">s</text><text xml:space="preserve" font-family="CourierNewPSMT,Courier New" font-size="36.0" fill="#CC1C00" transform="matrix(1.00, 0.00, -0.00, -1.00, 716.7, 490.2)">w</text><text xml:space="preserve" font-family="CourierNewPSMT,Courier New" font-size="36.0" fill="#CC1C00" transform="matrix(1.00, 0.00, -0.00, -1.00, 738.3, 490.2)">i</text><text xml:space="preserve" font-family="CourierNewPSMT,Courier New" font-size="36.0" fill="#CC1C00" transform="matrix(1.00, 0.00, -0.00, -1.00, 760.0, 490.2)">f</text><text xml:space="preserve" font-family="CourierNewPSMT,Courier New" font-size="36.0" fill="#CC1C00" transform="matrix(1.00, 0.00, -0.00, -1.00, 781.6, 490.2)">t</text><text xml:space="preserve" font-family="CourierNewPSMT,Courier New" font-size="36.0" fill="#CC1C00" transform="matrix(1.00, 0.00, -0.00, -1.00, 803.2, 490.2)">"</text><text xml:space="preserve" font-family="CourierNewPSMT,Courier New" font-size="36.0" fill="#CC1C00" transform="matrix(1.00, 0.00, -0.00, -1.00, 824.8, 490.2)"> </text><text xml:space="preserve" font-family="CourierNewPSMT,Courier New" font-size="36.0" fill="#CC1C00" transform="matrix(1.00, 0.00, -0.00, -1.00, 846.4, 490.2)"> </text><text xml:space="preserve" font-family="CourierNewPSMT,Courier New" font-size="36.0" fill="#000000" transform="matrix(1.00, 0.00, -0.00, -1.00, 68.6, 437.2)">v</text><text xml:space="preserve" font-family="CourierNewPSMT,Courier New" font-size="36.0" fill="#000000" transform="matrix(1.00, 0.00, -0.00, -1.00, 90.2, 437.2)">a</text><text xml:space="preserve" font-family="CourierNewPSMT,Courier New" font-size="36.0" fill="#000000" transform="matrix(1.00, 0.00, -0.00, -1.00, 111.8, 437.2)">r</text><text xml:space="preserve" font-family="CourierNewPSMT,Courier New" font-size="36.0" fill="#000000" transform="matrix(1.00, 0.00, -0.00, -1.00, 133.4, 437.2)"> </text><text xml:space="preserve" font-family="CourierNewPSMT,Courier New" font-size="36.0" fill="#000000" transform="matrix(1.00, 0.00, -0.00, -1.00, 155.1, 437.2)">g</text><text xml:space="preserve" font-family="CourierNewPSMT,Courier New" font-size="36.0" fill="#000000" transform="matrix(1.00, 0.00, -0.00, -1.00, 176.7, 437.2)">r</text><text xml:space="preserve" font-family="CourierNewPSMT,Courier New" font-size="36.0" fill="#000000" transform="matrix(1.00, 0.00, -0.00, -1.00, 198.3, 437.2)">e</text><text xml:space="preserve" font-family="CourierNewPSMT,Courier New" font-size="36.0" fill="#000000" transform="matrix(1.00, 0.00, -0.00, -1.00, 219.9, 437.2)">e</text><text xml:space="preserve" font-family="CourierNewPSMT,Courier New" font-size="36.0" fill="#000000" transform="matrix(1.00, 0.00, -0.00, -1.00, 241.5, 437.2)">t</text><text xml:space="preserve" font-family="CourierNewPSMT,Courier New" font-size="36.0" fill="#000000" transform="matrix(1.00, 0.00, -0.00, -1.00, 263.1, 437.2)">i</text><text xml:space="preserve" font-family="CourierNewPSMT,Courier New" font-size="36.0" fill="#000000" transform="matrix(1.00, 0.00, -0.00, -1.00, 284.7, 437.2)">n</text><text xml:space="preserve" font-family="CourierNewPSMT,Courier New" font-size="36.0" fill="#000000" transform="matrix(1.00, 0.00, -0.00, -1.00, 306.3, 437.2)">g</text><text xml:space="preserve" font-family="CourierNewPSMT,Courier New" font-size="36.0" fill="#000000" transform="matrix(1.00, 0.00, -0.00, -1.00, 327.9, 437.2)"> </text><text xml:space="preserve" font-family="CourierNewPSMT,Courier New" font-size="36.0" fill="#000000" transform="matrix(1.00, 0.00, -0.00, -1.00, 349.5, 437.2)">=</text><text xml:space="preserve" font-family="CourierNewPSMT,Courier New" font-size="36.0" fill="#000000" transform="matrix(1.00, 0.00, -0.00, -1.00, 371.1, 437.2)"> </text><text xml:space="preserve" font-family="CourierNewPSMT,Courier New" font-size="36.0" fill="#CC1C00" transform="matrix(1.00, 0.00, -0.00, -1.00, 392.7, 437.2)">"</text><text xml:space="preserve" font-family="CourierNewPSMT,Courier New" font-size="36.0" fill="#CC1C00" transform="matrix(1.00, 0.00, -0.00, -1.00, 414.3, 437.2)">H</text><text xml:space="preserve" font-family="CourierNewPSMT,Courier New" font-size="36.0" fill="#CC1C00" transform="matrix(1.00, 0.00, -0.00, -1.00, 435.9, 437.2)">e</text><text xml:space="preserve" font-family="CourierNewPSMT,Courier New" font-size="36.0" fill="#CC1C00" transform="matrix(1.00, 0.00, -0.00, -1.00, 457.5, 437.2)">l</text><text xml:space="preserve" font-family="CourierNewPSMT,Courier New" font-size="36.0" fill="#CC1C00" transform="matrix(1.00, 0.00, -0.00, -1.00, 479.1, 437.2)">l</text><text xml:space="preserve" font-family="CourierNewPSMT,Courier New" font-size="36.0" fill="#CC1C00" transform="matrix(1.00, 0.00, -0.00, -1.00, 500.7, 437.2)">o</text><text xml:space="preserve" font-family="CourierNewPSMT,Courier New" font-size="36.0" fill="#CC1C00" transform="matrix(1.00, 0.00, -0.00, -1.00, 522.3, 437.2)">!</text><text xml:space="preserve" font-family="CourierNewPSMT,Courier New" font-size="36.0" fill="#CC1C00" transform="matrix(1.00, 0.00, -0.00, -1.00, 543.9, 437.2)">"</text><text xml:space="preserve" font-family="Monaco,Monaco" font-size="36.0" fill="#CC1C00" transform="matrix(1.00, 0.00, -0.00, -1.00, 565.5, 437.2)"> </text><text xml:space="preserve" font-family="Helvetica,Helvetica" font-size="36.0" fill="#000000" transform="matrix(1.00, 0.00, -0.00, -1.00, 68.6, 391.7)"> </text><text xml:space="preserve" font-family="Times-Bold,Times" font-weight="bold" font-size="36.0" fill="#000000" transform="matrix(1.00, 0.00, -0.00, -1.00, 68.6, 349.4)">i</text><text xml:space="preserve" font-family="Times-Bold,Times" font-weight="bold" font-size="36.0" fill="#000000" transform="matrix(1.00, 0.00, -0.00, -1.00, 78.6, 349.4)">f</text><text xml:space="preserve" font-family="Times-Bold,Times" font-weight="bold" font-size="36.0" fill="#000000" transform="matrix(1.00, 0.00, -0.00, -1.00, 90.6, 349.4)"> </text><text xml:space="preserve" font-family="CourierNewPSMT,Courier New" font-size="36.0" fill="#000000" transform="matrix(1.00, 0.00, -0.00, -1.00, 99.6, 349.4)">o</text><text xml:space="preserve" font-family="CourierNewPSMT,Courier New" font-size="36.0" fill="#000000" transform="matrix(1.00, 0.00, -0.00, -1.00, 121.2, 349.4)">p</text><text xml:space="preserve" font-family="CourierNewPSMT,Courier New" font-size="36.0" fill="#000000" transform="matrix(1.00, 0.00, -0.00, -1.00, 142.8, 349.4)">t</text><text xml:space="preserve" font-family="CourierNewPSMT,Courier New" font-size="36.0" fill="#000000" transform="matrix(1.00, 0.00, -0.00, -1.00, 164.4, 349.4)">i</text><text xml:space="preserve" font-family="CourierNewPSMT,Courier New" font-size="36.0" fill="#000000" transform="matrix(1.00, 0.00, -0.00, -1.00, 186.0, 349.4)">o</text><text xml:space="preserve" font-family="CourierNewPSMT,Courier New" font-size="36.0" fill="#000000" transform="matrix(1.00, 0.00, -0.00, -1.00, 207.7, 349.4)">n</text><text xml:space="preserve" font-family="CourierNewPSMT,Courier New" font-size="36.0" fill="#000000" transform="matrix(1.00, 0.00, -0.00, -1.00, 229.3, 349.4)">a</text><text xml:space="preserve" font-family="CourierNewPSMT,Courier New" font-size="36.0" fill="#000000" transform="matrix(1.00, 0.00, -0.00, -1.00, 250.9, 349.4)">l</text><text xml:space="preserve" font-family="CourierNewPSMT,Courier New" font-size="36.0" fill="#000000" transform="matrix(1.00, 0.00, -0.00, -1.00, 272.5, 349.4)">N</text><text xml:space="preserve" font-family="CourierNewPSMT,Courier New" font-size="36.0" fill="#000000" transform="matrix(1.00, 0.00, -0.00, -1.00, 294.1, 349.4)">a</text><text xml:space="preserve" font-family="CourierNewPSMT,Courier New" font-size="36.0" fill="#000000" transform="matrix(1.00, 0.00, -0.00, -1.00, 315.7, 349.4)">m</text><text xml:space="preserve" font-family="CourierNewPSMT,Courier New" font-size="36.0" fill="#000000" transform="matrix(1.00, 0.00, -0.00, -1.00, 337.3, 349.4)">e</text><text xml:space="preserve" font-family="CourierNewPSMT,Courier New" font-size="36.0" fill="#000000" transform="matrix(1.00, 0.00, -0.00, -1.00, 358.9, 349.4)"> </text><text xml:space="preserve" font-family="CourierNewPSMT,Courier New" font-size="36.0" fill="#000000" transform="matrix(1.00, 0.00, -0.00, -1.00, 380.5, 349.4)">{</text><text xml:space="preserve" font-family="Times-Roman,Times" font-size="36.0" fill="#000000" transform="matrix(1.00, 0.00, -0.00, -1.00, 402.1, 349.4)">	</text><text xml:space="preserve" font-family="Times-Roman,Times" font-size="36.0" fill="#000000" transform="matrix(1.00, 0.00, -0.00, -1.00, 430.1, 349.4)">
</text><text xml:space="preserve" font-family="Times-Roman,Times" font-size="36.0" fill="#000000" transform="matrix(1.00, 0.00, -0.00, -1.00, 430.1, 349.4)"></text><text xml:space="preserve" font-family="CourierNewPSMT,Courier New" font-size="36.0" fill="#000000" transform="matrix(1.00, 0.00, -0.00, -1.00, 68.6, 296.4)"> </text><text xml:space="preserve" font-family="CourierNewPSMT,Courier New" font-size="36.0" fill="#000000" transform="matrix(1.00, 0.00, -0.00, -1.00, 90.2, 296.4)"> </text><text xml:space="preserve" font-family="CourierNewPSMT,Courier New" font-size="36.0" fill="#000000" transform="matrix(1.00, 0.00, -0.00, -1.00, 111.8, 296.4)"> </text><text xml:space="preserve" font-family="CourierNewPSMT,Courier New" font-size="36.0" fill="#000000" transform="matrix(1.00, 0.00, -0.00, -1.00, 133.4, 296.4)"> </text><text xml:space="preserve" font-family="CourierNewPSMT,Courier New" font-size="36.0" fill="#000000" transform="matrix(1.00, 0.00, -0.00, -1.00, 155.1, 296.4)">g</text><text xml:space="preserve" font-family="CourierNewPSMT,Courier New" font-size="36.0" fill="#000000" transform="matrix(1.00, 0.00, -0.00, -1.00, 176.7, 296.4)">r</text><text xml:space="preserve" font-family="CourierNewPSMT,Courier New" font-size="36.0" fill="#000000" transform="matrix(1.00, 0.00, -0.00, -1.00, 198.3, 296.4)">e</text><text xml:space="preserve" font-family="CourierNewPSMT,Courier New" font-size="36.0" fill="#000000" transform="matrix(1.00, 0.00, -0.00, -1.00, 219.9, 296.4)">e</text><text xml:space="preserve" font-family="CourierNewPSMT,Courier New" font-size="36.0" fill="#000000" transform="matrix(1.00, 0.00, -0.00, -1.00, 241.5, 296.4)">t</text><text xml:space="preserve" font-family="CourierNewPSMT,Courier New" font-size="36.0" fill="#000000" transform="matrix(1.00, 0.00, -0.00, -1.00, 263.1, 296.4)">i</text><text xml:space="preserve" font-family="CourierNewPSMT,Courier New" font-size="36.0" fill="#000000" transform="matrix(1.00, 0.00, -0.00, -1.00, 284.7, 296.4)">n</text><text xml:space="preserve" font-family="CourierNewPSMT,Courier New" font-size="36.0" fill="#000000" transform="matrix(1.00, 0.00, -0.00, -1.00, 306.3, 296.4)">g</text><text xml:space="preserve" font-family="CourierNewPSMT,Courier New" font-size="36.0" fill="#000000" transform="matrix(1.00, 0.00, -0.00, -1.00, 327.9, 296.4)"> </text><text xml:space="preserve" font-family="CourierNewPSMT,Courier New" font-size="36.0" fill="#000000" transform="matrix(1.00, 0.00, -0.00, -1.00, 349.5, 296.4)">=</text><text xml:space="preserve" font-family="CourierNewPSMT,Courier New" font-size="36.0" fill="#000000" transform="matrix(1.00, 0.00, -0.00, -1.00, 371.1, 296.4)"> </text><text xml:space="preserve" font-family="CourierNewPSMT,Courier New" font-size="36.0" fill="#CC1C00" transform="matrix(1.00, 0.00, -0.00, -1.00, 392.7, 296.4)">"</text><text xml:space="preserve" font-family="CourierNewPSMT,Courier New" font-size="36.0" fill="#CC1C00" transform="matrix(1.00, 0.00, -0.00, -1.00, 414.3, 296.4)">H</text><text xml:space="preserve" font-family="CourierNewPSMT,Courier New" font-size="36.0" fill="#CC1C00" transform="matrix(1.00, 0.00, -0.00, -1.00, 435.9, 296.4)">e</text><text xml:space="preserve" font-family="CourierNewPSMT,Courier New" font-size="36.0" fill="#CC1C00" transform="matrix(1.00, 0.00, -0.00, -1.00, 457.5, 296.4)">l</text><text xml:space="preserve" font-family="CourierNewPSMT,Courier New" font-size="36.0" fill="#CC1C00" transform="matrix(1.00, 0.00, -0.00, -1.00, 479.1, 296.4)">l</text><text xml:space="preserve" font-family="CourierNewPSMT,Courier New" font-size="36.0" fill="#CC1C00" transform="matrix(1.00, 0.00, -0.00, -1.00, 500.7, 296.4)">o</text><text xml:space="preserve" font-family="CourierNewPSMT,Courier New" font-size="36.0" fill="#CC1C00" transform="matrix(1.00, 0.00, -0.00, -1.00, 522.3, 296.4)">,</text><text xml:space="preserve" font-family="CourierNewPSMT,Courier New" font-size="36.0" fill="#CC1C00" transform="matrix(1.00, 0.00, -0.00, -1.00, 543.9, 296.4)"> </text><text xml:space="preserve" font-family="CourierNewPSMT,Courier New" font-size="36.0" fill="#CC1C00" transform="matrix(1.00, 0.00, -0.00, -1.00, 565.5, 296.4)">\</text><text xml:space="preserve" font-family="CourierNewPSMT,Courier New" font-size="36.0" fill="#CC1C00" transform="matrix(1.00, 0.00, -0.00, -1.00, 587.1, 296.4)">(</text><text xml:space="preserve" font-family="CourierNewPSMT,Courier New" font-size="36.0" fill="#CC1C00" transform="matrix(1.00, 0.00, -0.00, -1.00, 608.8, 296.4)">o</text><text xml:space="preserve" font-family="CourierNewPSMT,Courier New" font-size="36.0" fill="#CC1C00" transform="matrix(1.00, 0.00, -0.00, -1.00, 630.4, 296.4)">p</text><text xml:space="preserve" font-family="CourierNewPSMT,Courier New" font-size="36.0" fill="#CC1C00" transform="matrix(1.00, 0.00, -0.00, -1.00, 652.0, 296.4)">t</text><text xml:space="preserve" font-family="CourierNewPSMT,Courier New" font-size="36.0" fill="#CC1C00" transform="matrix(1.00, 0.00, -0.00, -1.00, 673.6, 296.4)">i</text><text xml:space="preserve" font-family="CourierNewPSMT,Courier New" font-size="36.0" fill="#CC1C00" transform="matrix(1.00, 0.00, -0.00, -1.00, 695.2, 296.4)">o</text><text xml:space="preserve" font-family="CourierNewPSMT,Courier New" font-size="36.0" fill="#CC1C00" transform="matrix(1.00, 0.00, -0.00, -1.00, 716.8, 296.4)">n</text><text xml:space="preserve" font-family="CourierNewPSMT,Courier New" font-size="36.0" fill="#CC1C00" transform="matrix(1.00, 0.00, -0.00, -1.00, 738.4, 296.4)">a</text><text xml:space="preserve" font-family="CourierNewPSMT,Courier New" font-size="36.0" fill="#CC1C00" transform="matrix(1.00, 0.00, -0.00, -1.00, 760.0, 296.4)">l</text><text xml:space="preserve" font-family="CourierNewPSMT,Courier New" font-size="36.0" fill="#CC1C00" transform="matrix(1.00, 0.00, -0.00, -1.00, 781.6, 296.4)">N</text><text xml:space="preserve" font-family="CourierNewPSMT,Courier New" font-size="36.0" fill="#CC1C00" transform="matrix(1.00, 0.00, -0.00, -1.00, 803.2, 296.4)">a</text><text xml:space="preserve" font-family="CourierNewPSMT,Courier New" font-size="36.0" fill="#CC1C00" transform="matrix(1.00, 0.00, -0.00, -1.00, 824.8, 296.4)">m</text><text xml:space="preserve" font-family="CourierNewPSMT,Courier New" font-size="36.0" fill="#CC1C00" transform="matrix(1.00, 0.00, -0.00, -1.00, 846.4, 296.4)">e</text><text xml:space="preserve" font-family="CourierNewPSMT,Courier New" font-size="36.0" fill="#CC1C00" transform="matrix(1.00, 0.00, -0.00, -1.00, 868.0, 296.4)">!</text><text xml:space="preserve" font-family="CourierNewPSMT,Courier New" font-size="36.0" fill="#CC1C00" transform="matrix(1.00, 0.00, -0.00, -1.00, 889.6, 296.4)">)</text><text xml:space="preserve" font-family="CourierNewPSMT,Courier New" font-size="36.0" fill="#CC1C00" transform="matrix(1.00, 0.00, -0.00, -1.00, 911.3, 296.4)">"</text><text xml:space="preserve" font-family="CourierNewPSMT,Courier New" font-size="36.0" fill="#CC1C00" transform="matrix(1.00, 0.00, -0.00, -1.00, 932.9, 296.4)"> </text><text xml:space="preserve" font-family="CourierNewPSMT,Courier New" font-size="36.0" fill="#000000" transform="matrix(1.00, 0.00, -0.00, -1.00, 68.6, 255.4)">}</text><text xml:space="preserve" font-family="CourierNewPSMT,Courier New" font-size="36.0" fill="#000000" transform="matrix(1.00, 0.00, -0.00, -1.00, 90.2, 255.4)"> </text></g></svg>