<?xml version="1.0" encoding="UTF-8" standalone="no"?><svg xmlns="http://www.w3.org/2000/svg" xmlns:xlink="http://www.w3.org/1999/xlink" clip-rule="evenodd" stroke-miterlimit="10" viewBox="0 0 122 122"><desc>SVG generated by Keynote</desc><defs></defs><g transform="matrix(1.00, 0.00, -0.00, -1.00, 0.0, 122.0)"><g><clipPath id="clip0x7fbe44761660"><path d="M 0.0 0.0 L 122.0 0.0 L 122.0 122.0 L 0.0 122.0 Z M 0.0 0.0 "></path></clipPath><g clip-path="url(#clip0x7fbe44761660)"><path d="M 85.4 14.6 C 104.9 34.2 104.9 65.8 85.4 85.4 C 65.8 104.9 34.2 104.9 14.6 85.4 C -4.9 65.8 -4.9 34.2 14.6 14.6 C 34.2 -4.9 65.8 -4.9 85.4 14.6 Z M 85.4 14.6 " fill="none" stroke="#EA3C43" stroke-width="20.00" transform="matrix(1.00, 0.00, 0.00, -1.00, 11.0, 111.0)"></path></g></g><g><clipPath id="clip0x7fbe44762610"><path d="M 22.5 38.1 L 83.9 99.5 L 99.5 83.9 L 38.1 22.5 Z M 22.5 38.1 "></path></clipPath><g clip-path="url(#clip0x7fbe44762610)"><path d="M 0.0 0.0 L 84.9 0.0 " fill="none" stroke="#EA3C43" stroke-width="20.00" transform="matrix(0.71, 0.71, 0.71, -0.71, 31.0, 31.0)"></path></g></g></g></svg>