<?xml version="1.0" encoding="UTF-8" standalone="no"?><svg xmlns="http://www.w3.org/2000/svg" xmlns:xlink="http://www.w3.org/1999/xlink" clip-rule="evenodd" stroke-miterlimit="10" viewBox="0 0 1024 768"><desc>SVG generated by Keynote</desc><defs></defs><g transform="matrix(1.00, 0.00, -0.00, -1.00, 0.0, 768.0)"><g><clipPath id="clip0x7fbe4473e810"><path d="M 0.0 768.0 L 1024.0 768.0 L 1024.0 0.0 L 0.0 0.0 Z M 0.0 768.0 "></path></clipPath><g clip-path="url(#clip0x7fbe4473e810)"><image xlink:href="../../E942948C-BC6A-49D1-B3B9-4DAB4A4FD6CB/assets/527288347077A8BC66C9A53B775387A8.jpeg" width="2048.00" height="1536.00" transform="matrix(0.50, 0.00, -0.00, -0.50, 0.0, 768.0)"></image></g></g><g><clipPath id="clip0x7fbe452cab80"><path d="M 0.0 0.0 L 1024.0 0.0 L 1024.0 768.0 L 0.0 768.0 Z M 0.0 0.0 "></path></clipPath><g clip-path="url(#clip0x7fbe452cab80)"><path d="M 0.0 0.0 L 1024.0 0.0 L 1024.0 768.0 L 0.0 768.0 Z M 0.0 0.0 " fill="#FFFFFF"></path><path d="M 0.0 768.0 L 1024.0 768.0 L 1024.0 0.0 L 0.0 0.0 Z M 0.0 768.0 " fill="#FEFFFF"></path><image xlink:href="../../79C34594-4B92-4AB2-9705-433708CBC79A/assets/BAED5E2DA46D0F9F3C8335056DDC7E3A.png" width="1082.00" height="878.00" transform="matrix(1.00, 0.00, -0.00, -1.00, -11.1, 873.2)"></image></g></g></g></svg>