<?xml version="1.0" encoding="UTF-8" standalone="no"?><svg xmlns="http://www.w3.org/2000/svg" xmlns:xlink="http://www.w3.org/1999/xlink" clip-rule="evenodd" stroke-miterlimit="10" viewBox="0 0 1024 768"><desc>SVG generated by Keynote</desc><defs></defs><g transform="matrix(1.00, 0.00, -0.00, -1.00, 0.0, 768.0)"><g><clipPath id="clip0x7fbe4836e0d0"><path d="M 0.0 768.0 L 1024.0 768.0 L 1024.0 0.0 L 0.0 0.0 Z M 0.0 768.0 "></path></clipPath><g clip-path="url(#clip0x7fbe4836e0d0)"><image xlink:href="../../E942948C-BC6A-49D1-B3B9-4DAB4A4FD6CB/assets/527288347077A8BC66C9A53B775387A8.jpeg" width="2048.00" height="1536.00" transform="matrix(0.50, 0.00, -0.00, -0.50, 0.0, 768.0)"></image></g></g><text xml:space="preserve" font-family="Times-Bold,Times" font-weight="bold" font-size="31.0" fill="#000000" transform="matrix(1.00, 0.00, -0.00, -1.00, 52.4, 587.8)">c</text><text xml:space="preserve" font-family="Times-Bold,Times" font-weight="bold" font-size="31.0" fill="#000000" transform="matrix(1.00, 0.00, -0.00, -1.00, 66.2, 587.8)">l</text><text xml:space="preserve" font-family="Times-Bold,Times" font-weight="bold" font-size="31.0" fill="#000000" transform="matrix(1.00, 0.00, -0.00, -1.00, 74.8, 587.8)">a</text><text xml:space="preserve" font-family="Times-Bold,Times" font-weight="bold" font-size="31.0" fill="#000000" transform="matrix(1.00, 0.00, -0.00, -1.00, 90.3, 587.8)">s</text><text xml:space="preserve" font-family="Times-Bold,Times" font-weight="bold" font-size="31.0" fill="#000000" transform="matrix(1.00, 0.00, -0.00, -1.00, 102.3, 587.8)">s</text><text xml:space="preserve" font-family="Times-Bold,Times" font-weight="bold" font-size="31.0" fill="#000000" transform="matrix(1.00, 0.00, -0.00, -1.00, 114.4, 587.8)"> </text><text xml:space="preserve" font-family="CourierNewPSMT,Courier New" font-size="31.0" fill="#000000" transform="matrix(1.00, 0.00, -0.00, -1.00, 122.2, 587.8)">N</text><text xml:space="preserve" font-family="CourierNewPSMT,Courier New" font-size="31.0" fill="#000000" transform="matrix(1.00, 0.00, -0.00, -1.00, 140.8, 587.8)">a</text><text xml:space="preserve" font-family="CourierNewPSMT,Courier New" font-size="31.0" fill="#000000" transform="matrix(1.00, 0.00, -0.00, -1.00, 159.4, 587.8)">m</text><text xml:space="preserve" font-family="CourierNewPSMT,Courier New" font-size="31.0" fill="#000000" transform="matrix(1.00, 0.00, -0.00, -1.00, 178.0, 587.8)">e</text><text xml:space="preserve" font-family="CourierNewPSMT,Courier New" font-size="31.0" fill="#000000" transform="matrix(1.00, 0.00, -0.00, -1.00, 196.6, 587.8)">d</text><text xml:space="preserve" font-family="CourierNewPSMT,Courier New" font-size="31.0" fill="#000000" transform="matrix(1.00, 0.00, -0.00, -1.00, 215.2, 587.8)">S</text><text xml:space="preserve" font-family="CourierNewPSMT,Courier New" font-size="31.0" fill="#000000" transform="matrix(1.00, 0.00, -0.00, -1.00, 233.8, 587.8)">h</text><text xml:space="preserve" font-family="CourierNewPSMT,Courier New" font-size="31.0" fill="#000000" transform="matrix(1.00, 0.00, -0.00, -1.00, 252.4, 587.8)">a</text><text xml:space="preserve" font-family="CourierNewPSMT,Courier New" font-size="31.0" fill="#000000" transform="matrix(1.00, 0.00, -0.00, -1.00, 271.0, 587.8)">p</text><text xml:space="preserve" font-family="CourierNewPSMT,Courier New" font-size="31.0" fill="#000000" transform="matrix(1.00, 0.00, -0.00, -1.00, 289.6, 587.8)">e</text><text xml:space="preserve" font-family="CourierNewPSMT,Courier New" font-size="31.0" fill="#000000" transform="matrix(1.00, 0.00, -0.00, -1.00, 308.2, 587.8)"> </text><text xml:space="preserve" font-family="CourierNewPSMT,Courier New" font-size="31.0" fill="#000000" transform="matrix(1.00, 0.00, -0.00, -1.00, 326.8, 587.8)">{</text><text xml:space="preserve" font-family="Monaco,Monaco" font-size="31.0" fill="#000000" transform="matrix(1.00, 0.00, -0.00, -1.00, 345.4, 587.8)"> </text><text xml:space="preserve" font-family="CourierNewPSMT,Courier New" font-size="31.0" fill="#000000" transform="matrix(1.00, 0.00, -0.00, -1.00, 52.4, 552.8)"> </text><text xml:space="preserve" font-family="CourierNewPSMT,Courier New" font-size="31.0" fill="#000000" transform="matrix(1.00, 0.00, -0.00, -1.00, 88.4, 552.8)"> </text><text xml:space="preserve" font-family="CourierNewPSMT,Courier New" font-size="31.0" fill="#000000" transform="matrix(1.00, 0.00, -0.00, -1.00, 124.4, 552.8)">v</text><text xml:space="preserve" font-family="CourierNewPSMT,Courier New" font-size="31.0" fill="#000000" transform="matrix(1.00, 0.00, -0.00, -1.00, 143.0, 552.8)">a</text><text xml:space="preserve" font-family="CourierNewPSMT,Courier New" font-size="31.0" fill="#000000" transform="matrix(1.00, 0.00, -0.00, -1.00, 161.7, 552.8)">r</text><text xml:space="preserve" font-family="CourierNewPSMT,Courier New" font-size="31.0" fill="#000000" transform="matrix(1.00, 0.00, -0.00, -1.00, 180.3, 552.8)"> </text><text xml:space="preserve" font-family="CourierNewPSMT,Courier New" font-size="31.0" fill="#000000" transform="matrix(1.00, 0.00, -0.00, -1.00, 198.9, 552.8)">n</text><text xml:space="preserve" font-family="CourierNewPSMT,Courier New" font-size="31.0" fill="#000000" transform="matrix(1.00, 0.00, -0.00, -1.00, 217.5, 552.8)">u</text><text xml:space="preserve" font-family="CourierNewPSMT,Courier New" font-size="31.0" fill="#000000" transform="matrix(1.00, 0.00, -0.00, -1.00, 236.1, 552.8)">m</text><text xml:space="preserve" font-family="CourierNewPSMT,Courier New" font-size="31.0" fill="#000000" transform="matrix(1.00, 0.00, -0.00, -1.00, 254.7, 552.8)">b</text><text xml:space="preserve" font-family="CourierNewPSMT,Courier New" font-size="31.0" fill="#000000" transform="matrix(1.00, 0.00, -0.00, -1.00, 273.3, 552.8)">e</text><text xml:space="preserve" font-family="CourierNewPSMT,Courier New" font-size="31.0" fill="#000000" transform="matrix(1.00, 0.00, -0.00, -1.00, 291.9, 552.8)">r</text><text xml:space="preserve" font-family="CourierNewPSMT,Courier New" font-size="31.0" fill="#000000" transform="matrix(1.00, 0.00, -0.00, -1.00, 310.5, 552.8)">O</text><text xml:space="preserve" font-family="CourierNewPSMT,Courier New" font-size="31.0" fill="#000000" transform="matrix(1.00, 0.00, -0.00, -1.00, 329.2, 552.8)">f</text><text xml:space="preserve" font-family="CourierNewPSMT,Courier New" font-size="31.0" fill="#000000" transform="matrix(1.00, 0.00, -0.00, -1.00, 347.8, 552.8)">S</text><text xml:space="preserve" font-family="CourierNewPSMT,Courier New" font-size="31.0" fill="#000000" transform="matrix(1.00, 0.00, -0.00, -1.00, 366.4, 552.8)">i</text><text xml:space="preserve" font-family="CourierNewPSMT,Courier New" font-size="31.0" fill="#000000" transform="matrix(1.00, 0.00, -0.00, -1.00, 385.0, 552.8)">d</text><text xml:space="preserve" font-family="CourierNewPSMT,Courier New" font-size="31.0" fill="#000000" transform="matrix(1.00, 0.00, -0.00, -1.00, 403.6, 552.8)">e</text><text xml:space="preserve" font-family="CourierNewPSMT,Courier New" font-size="31.0" fill="#000000" transform="matrix(1.00, 0.00, -0.00, -1.00, 422.2, 552.8)">s</text><text xml:space="preserve" font-family="CourierNewPSMT,Courier New" font-size="31.0" fill="#000000" transform="matrix(1.00, 0.00, -0.00, -1.00, 440.8, 552.8)">:</text><text xml:space="preserve" font-family="CourierNewPSMT,Courier New" font-size="31.0" fill="#000000" transform="matrix(1.00, 0.00, -0.00, -1.00, 459.4, 552.8)"> </text><text xml:space="preserve" font-family="CourierNewPSMT,Courier New" font-size="31.0" fill="#000000" transform="matrix(1.00, 0.00, -0.00, -1.00, 478.1, 552.8)">I</text><text xml:space="preserve" font-family="CourierNewPSMT,Courier New" font-size="31.0" fill="#000000" transform="matrix(1.00, 0.00, -0.00, -1.00, 496.7, 552.8)">n</text><text xml:space="preserve" font-family="CourierNewPSMT,Courier New" font-size="31.0" fill="#000000" transform="matrix(1.00, 0.00, -0.00, -1.00, 515.3, 552.8)">t</text><text xml:space="preserve" font-family="CourierNewPSMT,Courier New" font-size="31.0" fill="#000000" transform="matrix(1.00, 0.00, -0.00, -1.00, 533.9, 552.8)"> </text><text xml:space="preserve" font-family="CourierNewPSMT,Courier New" font-size="31.0" fill="#000000" transform="matrix(1.00, 0.00, -0.00, -1.00, 552.5, 552.8)">=</text><text xml:space="preserve" font-family="CourierNewPSMT,Courier New" font-size="31.0" fill="#000000" transform="matrix(1.00, 0.00, -0.00, -1.00, 571.1, 552.8)"> </text><text xml:space="preserve" font-family="CourierNewPSMT,Courier New" font-size="31.0" fill="#BE8F00" transform="matrix(1.00, 0.00, -0.00, -1.00, 589.5, 552.8)">0</text><text xml:space="preserve" font-family="CourierNewPSMT,Courier New" font-size="31.0" fill="#BE8F00" transform="matrix(1.00, 0.00, -0.00, -1.00, 608.1, 552.8)"> </text><text xml:space="preserve" font-family="CourierNewPSMT,Courier New" font-size="31.0" fill="#BE8F00" transform="matrix(1.00, 0.00, -0.00, -1.00, 626.7, 552.8)"> </text><text xml:space="preserve" font-family="CourierNewPSMT,Courier New" font-size="31.0" fill="#BE8F00" transform="matrix(1.00, 0.00, -0.00, -1.00, 52.4, 505.8)"> </text><text xml:space="preserve" font-family="CourierNewPSMT,Courier New" font-size="31.0" fill="#BE8F00" transform="matrix(1.00, 0.00, -0.00, -1.00, 88.4, 505.8)"> </text><text xml:space="preserve" font-family="CourierNewPSMT,Courier New" font-size="31.0" fill="#000000" transform="matrix(1.00, 0.00, -0.00, -1.00, 124.4, 505.8)">v</text><text xml:space="preserve" font-family="CourierNewPSMT,Courier New" font-size="31.0" fill="#000000" transform="matrix(1.00, 0.00, -0.00, -1.00, 143.0, 505.8)">a</text><text xml:space="preserve" font-family="CourierNewPSMT,Courier New" font-size="31.0" fill="#000000" transform="matrix(1.00, 0.00, -0.00, -1.00, 161.6, 505.8)">r</text><text xml:space="preserve" font-family="CourierNewPSMT,Courier New" font-size="31.0" fill="#000000" transform="matrix(1.00, 0.00, -0.00, -1.00, 180.2, 505.8)"> </text><text xml:space="preserve" font-family="CourierNewPSMT,Courier New" font-size="31.0" fill="#000000" transform="matrix(1.00, 0.00, -0.00, -1.00, 198.8, 505.8)">n</text><text xml:space="preserve" font-family="CourierNewPSMT,Courier New" font-size="31.0" fill="#000000" transform="matrix(1.00, 0.00, -0.00, -1.00, 217.5, 505.8)">a</text><text xml:space="preserve" font-family="CourierNewPSMT,Courier New" font-size="31.0" fill="#000000" transform="matrix(1.00, 0.00, -0.00, -1.00, 236.1, 505.8)">m</text><text xml:space="preserve" font-family="CourierNewPSMT,Courier New" font-size="31.0" fill="#000000" transform="matrix(1.00, 0.00, -0.00, -1.00, 254.7, 505.8)">e</text><text xml:space="preserve" font-family="CourierNewPSMT,Courier New" font-size="31.0" fill="#000000" transform="matrix(1.00, 0.00, -0.00, -1.00, 273.3, 505.8)">:</text><text xml:space="preserve" font-family="CourierNewPSMT,Courier New" font-size="31.0" fill="#000000" transform="matrix(1.00, 0.00, -0.00, -1.00, 291.9, 505.8)"> </text><text xml:space="preserve" font-family="CourierNewPSMT,Courier New" font-size="31.0" fill="#000000" transform="matrix(1.00, 0.00, -0.00, -1.00, 310.5, 505.8)">S</text><text xml:space="preserve" font-family="CourierNewPSMT,Courier New" font-size="31.0" fill="#000000" transform="matrix(1.00, 0.00, -0.00, -1.00, 329.1, 505.8)">t</text><text xml:space="preserve" font-family="CourierNewPSMT,Courier New" font-size="31.0" fill="#000000" transform="matrix(1.00, 0.00, -0.00, -1.00, 347.7, 505.8)">r</text><text xml:space="preserve" font-family="CourierNewPSMT,Courier New" font-size="31.0" fill="#000000" transform="matrix(1.00, 0.00, -0.00, -1.00, 366.3, 505.8)">i</text><text xml:space="preserve" font-family="CourierNewPSMT,Courier New" font-size="31.0" fill="#000000" transform="matrix(1.00, 0.00, -0.00, -1.00, 384.9, 505.8)">n</text><text xml:space="preserve" font-family="CourierNewPSMT,Courier New" font-size="31.0" fill="#000000" transform="matrix(1.00, 0.00, -0.00, -1.00, 403.5, 505.8)">g</text><text xml:space="preserve" font-family="Times-Roman,Times" font-size="31.0" fill="#000000" transform="matrix(1.00, 0.00, -0.00, -1.00, 422.1, 505.8)">	</text><text xml:space="preserve" font-family="Times-Roman,Times" font-size="31.0" fill="#000000" transform="matrix(1.00, 0.00, -0.00, -1.00, 450.1, 505.8)">
</text><text xml:space="preserve" font-family="Times-Roman,Times" font-size="31.0" fill="#000000" transform="matrix(1.00, 0.00, -0.00, -1.00, 450.1, 505.8)"></text><text xml:space="preserve" font-family="CourierNewPSMT,Courier New" font-size="31.0" fill="#000000" transform="matrix(1.00, 0.00, -0.00, -1.00, 52.4, 458.8)"> </text><text xml:space="preserve" font-family="CourierNewPSMT,Courier New" font-size="31.0" fill="#000000" transform="matrix(1.00, 0.00, -0.00, -1.00, 71.0, 458.8)"> </text><text xml:space="preserve" font-family="CourierNewPSMT,Courier New" font-size="31.0" fill="#000000" transform="matrix(1.00, 0.00, -0.00, -1.00, 89.6, 458.8)"> </text><text xml:space="preserve" font-family="CourierNewPSMT,Courier New" font-size="31.0" fill="#000000" transform="matrix(1.00, 0.00, -0.00, -1.00, 108.2, 458.8)"> </text><text xml:space="preserve" font-family="CourierNewPSMT,Courier New" font-size="31.0" fill="#000000" transform="matrix(1.00, 0.00, -0.00, -1.00, 126.8, 458.8)">i</text><text xml:space="preserve" font-family="CourierNewPSMT,Courier New" font-size="31.0" fill="#000000" transform="matrix(1.00, 0.00, -0.00, -1.00, 145.5, 458.8)">n</text><text xml:space="preserve" font-family="CourierNewPSMT,Courier New" font-size="31.0" fill="#000000" transform="matrix(1.00, 0.00, -0.00, -1.00, 164.1, 458.8)">i</text><text xml:space="preserve" font-family="CourierNewPSMT,Courier New" font-size="31.0" fill="#000000" transform="matrix(1.00, 0.00, -0.00, -1.00, 182.7, 458.8)">t</text><text xml:space="preserve" font-family="CourierNewPSMT,Courier New" font-size="31.0" fill="#000000" transform="matrix(1.00, 0.00, -0.00, -1.00, 201.3, 458.8)">(</text><text xml:space="preserve" font-family="CourierNewPSMT,Courier New" font-size="31.0" fill="#000000" transform="matrix(1.00, 0.00, -0.00, -1.00, 219.9, 458.8)">n</text><text xml:space="preserve" font-family="CourierNewPSMT,Courier New" font-size="31.0" fill="#000000" transform="matrix(1.00, 0.00, -0.00, -1.00, 238.5, 458.8)">a</text><text xml:space="preserve" font-family="CourierNewPSMT,Courier New" font-size="31.0" fill="#000000" transform="matrix(1.00, 0.00, -0.00, -1.00, 257.1, 458.8)">m</text><text xml:space="preserve" font-family="CourierNewPSMT,Courier New" font-size="31.0" fill="#000000" transform="matrix(1.00, 0.00, -0.00, -1.00, 275.7, 458.8)">e</text><text xml:space="preserve" font-family="CourierNewPSMT,Courier New" font-size="31.0" fill="#000000" transform="matrix(1.00, 0.00, -0.00, -1.00, 294.3, 458.8)">:</text><text xml:space="preserve" font-family="CourierNewPSMT,Courier New" font-size="31.0" fill="#000000" transform="matrix(1.00, 0.00, -0.00, -1.00, 312.9, 458.8)"> </text><text xml:space="preserve" font-family="CourierNewPSMT,Courier New" font-size="31.0" fill="#000000" transform="matrix(1.00, 0.00, -0.00, -1.00, 331.5, 458.8)">S</text><text xml:space="preserve" font-family="CourierNewPSMT,Courier New" font-size="31.0" fill="#000000" transform="matrix(1.00, 0.00, -0.00, -1.00, 350.1, 458.8)">t</text><text xml:space="preserve" font-family="CourierNewPSMT,Courier New" font-size="31.0" fill="#000000" transform="matrix(1.00, 0.00, -0.00, -1.00, 368.7, 458.8)">r</text><text xml:space="preserve" font-family="CourierNewPSMT,Courier New" font-size="31.0" fill="#000000" transform="matrix(1.00, 0.00, -0.00, -1.00, 387.3, 458.8)">i</text><text xml:space="preserve" font-family="CourierNewPSMT,Courier New" font-size="31.0" fill="#000000" transform="matrix(1.00, 0.00, -0.00, -1.00, 405.9, 458.8)">n</text><text xml:space="preserve" font-family="CourierNewPSMT,Courier New" font-size="31.0" fill="#000000" transform="matrix(1.00, 0.00, -0.00, -1.00, 424.5, 458.8)">g</text><text xml:space="preserve" font-family="CourierNewPSMT,Courier New" font-size="31.0" fill="#000000" transform="matrix(1.00, 0.00, -0.00, -1.00, 443.1, 458.8)">)</text><text xml:space="preserve" font-family="CourierNewPSMT,Courier New" font-size="31.0" fill="#000000" transform="matrix(1.00, 0.00, -0.00, -1.00, 461.8, 458.8)"> </text><text xml:space="preserve" font-family="CourierNewPSMT,Courier New" font-size="31.0" fill="#000000" transform="matrix(1.00, 0.00, -0.00, -1.00, 480.4, 458.8)">{</text><text xml:space="preserve" font-family="CourierNewPSMT,Courier New" font-size="31.0" fill="#000000" transform="matrix(1.00, 0.00, -0.00, -1.00, 499.0, 458.8)"> </text><text xml:space="preserve" font-family="CourierNewPSMT,Courier New" font-size="31.0" fill="#000000" transform="matrix(1.00, 0.00, -0.00, -1.00, 52.4, 423.8)"> </text><text xml:space="preserve" font-family="CourierNewPSMT,Courier New" font-size="31.0" fill="#000000" transform="matrix(1.00, 0.00, -0.00, -1.00, 71.0, 423.8)"> </text><text xml:space="preserve" font-family="CourierNewPSMT,Courier New" font-size="31.0" fill="#000000" transform="matrix(1.00, 0.00, -0.00, -1.00, 89.6, 423.8)"> </text><text xml:space="preserve" font-family="CourierNewPSMT,Courier New" font-size="31.0" fill="#000000" transform="matrix(1.00, 0.00, -0.00, -1.00, 108.2, 423.8)"> </text><text xml:space="preserve" font-family="CourierNewPSMT,Courier New" font-size="31.0" fill="#000000" transform="matrix(1.00, 0.00, -0.00, -1.00, 126.8, 423.8)"> </text><text xml:space="preserve" font-family="CourierNewPSMT,Courier New" font-size="31.0" fill="#000000" transform="matrix(1.00, 0.00, -0.00, -1.00, 145.5, 423.8)"> </text><text xml:space="preserve" font-family="CourierNewPSMT,Courier New" font-size="31.0" fill="#000000" transform="matrix(1.00, 0.00, -0.00, -1.00, 164.1, 423.8)"> </text><text xml:space="preserve" font-family="CourierNewPSMT,Courier New" font-size="31.0" fill="#000000" transform="matrix(1.00, 0.00, -0.00, -1.00, 182.7, 423.8)"> </text><text xml:space="preserve" font-family="CourierNewPSMT,Courier New" font-size="31.0" fill="#000000" transform="matrix(1.00, 0.00, -0.00, -1.00, 201.3, 423.8)">s</text><text xml:space="preserve" font-family="CourierNewPSMT,Courier New" font-size="31.0" fill="#000000" transform="matrix(1.00, 0.00, -0.00, -1.00, 219.9, 423.8)">e</text><text xml:space="preserve" font-family="CourierNewPSMT,Courier New" font-size="31.0" fill="#000000" transform="matrix(1.00, 0.00, -0.00, -1.00, 238.5, 423.8)">l</text><text xml:space="preserve" font-family="CourierNewPSMT,Courier New" font-size="31.0" fill="#000000" transform="matrix(1.00, 0.00, -0.00, -1.00, 257.1, 423.8)">f</text><text xml:space="preserve" font-family="CourierNewPSMT,Courier New" font-size="31.0" fill="#000000" transform="matrix(1.00, 0.00, -0.00, -1.00, 275.7, 423.8)">.</text><text xml:space="preserve" font-family="CourierNewPSMT,Courier New" font-size="31.0" fill="#000000" transform="matrix(1.00, 0.00, -0.00, -1.00, 294.3, 423.8)">n</text><text xml:space="preserve" font-family="CourierNewPSMT,Courier New" font-size="31.0" fill="#000000" transform="matrix(1.00, 0.00, -0.00, -1.00, 312.9, 423.8)">a</text><text xml:space="preserve" font-family="CourierNewPSMT,Courier New" font-size="31.0" fill="#000000" transform="matrix(1.00, 0.00, -0.00, -1.00, 331.5, 423.8)">m</text><text xml:space="preserve" font-family="CourierNewPSMT,Courier New" font-size="31.0" fill="#000000" transform="matrix(1.00, 0.00, -0.00, -1.00, 350.1, 423.8)">e</text><text xml:space="preserve" font-family="CourierNewPSMT,Courier New" font-size="31.0" fill="#000000" transform="matrix(1.00, 0.00, -0.00, -1.00, 368.7, 423.8)"> </text><text xml:space="preserve" font-family="CourierNewPSMT,Courier New" font-size="31.0" fill="#000000" transform="matrix(1.00, 0.00, -0.00, -1.00, 387.3, 423.8)">=</text><text xml:space="preserve" font-family="CourierNewPSMT,Courier New" font-size="31.0" fill="#000000" transform="matrix(1.00, 0.00, -0.00, -1.00, 405.9, 423.8)"> </text><text xml:space="preserve" font-family="CourierNewPSMT,Courier New" font-size="31.0" fill="#000000" transform="matrix(1.00, 0.00, -0.00, -1.00, 424.5, 423.8)">n</text><text xml:space="preserve" font-family="CourierNewPSMT,Courier New" font-size="31.0" fill="#000000" transform="matrix(1.00, 0.00, -0.00, -1.00, 443.1, 423.8)">a</text><text xml:space="preserve" font-family="CourierNewPSMT,Courier New" font-size="31.0" fill="#000000" transform="matrix(1.00, 0.00, -0.00, -1.00, 461.8, 423.8)">m</text><text xml:space="preserve" font-family="CourierNewPSMT,Courier New" font-size="31.0" fill="#000000" transform="matrix(1.00, 0.00, -0.00, -1.00, 480.4, 423.8)">e</text><text xml:space="preserve" font-family="CourierNewPSMT,Courier New" font-size="31.0" fill="#000000" transform="matrix(1.00, 0.00, -0.00, -1.00, 499.0, 423.8)"> </text><text xml:space="preserve" font-family="CourierNewPSMT,Courier New" font-size="31.0" fill="#000000" transform="matrix(1.00, 0.00, -0.00, -1.00, 52.4, 388.8)"> </text><text xml:space="preserve" font-family="CourierNewPSMT,Courier New" font-size="31.0" fill="#000000" transform="matrix(1.00, 0.00, -0.00, -1.00, 88.4, 388.8)"> </text><text xml:space="preserve" font-family="CourierNewPSMT,Courier New" font-size="31.0" fill="#000000" transform="matrix(1.00, 0.00, -0.00, -1.00, 124.4, 388.8)">}</text><text xml:space="preserve" font-family="Times-Roman,Times" font-size="31.0" fill="#000000" transform="matrix(1.00, 0.00, -0.00, -1.00, 143.0, 388.8)">	</text><text xml:space="preserve" font-family="Times-Roman,Times" font-size="31.0" fill="#000000" transform="matrix(1.00, 0.00, -0.00, -1.00, 171.0, 388.8)">
</text><text xml:space="preserve" font-family="Times-Roman,Times" font-size="31.0" fill="#000000" transform="matrix(1.00, 0.00, -0.00, -1.00, 171.0, 388.8)"></text><text xml:space="preserve" font-family="CourierNewPSMT,Courier New" font-size="31.0" fill="#000000" transform="matrix(1.00, 0.00, -0.00, -1.00, 52.4, 341.8)"> </text><text xml:space="preserve" font-family="CourierNewPSMT,Courier New" font-size="31.0" fill="#000000" transform="matrix(1.00, 0.00, -0.00, -1.00, 71.0, 341.8)"> </text><text xml:space="preserve" font-family="CourierNewPSMT,Courier New" font-size="31.0" fill="#000000" transform="matrix(1.00, 0.00, -0.00, -1.00, 89.6, 341.8)"> </text><text xml:space="preserve" font-family="CourierNewPSMT,Courier New" font-size="31.0" fill="#000000" transform="matrix(1.00, 0.00, -0.00, -1.00, 108.2, 341.8)"> </text><text xml:space="preserve" font-family="CourierNewPSMT,Courier New" font-size="31.0" fill="#000000" transform="matrix(1.00, 0.00, -0.00, -1.00, 126.8, 341.8)">f</text><text xml:space="preserve" font-family="CourierNewPSMT,Courier New" font-size="31.0" fill="#000000" transform="matrix(1.00, 0.00, -0.00, -1.00, 145.5, 341.8)">u</text><text xml:space="preserve" font-family="CourierNewPSMT,Courier New" font-size="31.0" fill="#000000" transform="matrix(1.00, 0.00, -0.00, -1.00, 164.1, 341.8)">n</text><text xml:space="preserve" font-family="CourierNewPSMT,Courier New" font-size="31.0" fill="#000000" transform="matrix(1.00, 0.00, -0.00, -1.00, 182.7, 341.8)">c</text><text xml:space="preserve" font-family="CourierNewPSMT,Courier New" font-size="31.0" fill="#000000" transform="matrix(1.00, 0.00, -0.00, -1.00, 201.3, 341.8)"> </text><text xml:space="preserve" font-family="CourierNewPSMT,Courier New" font-size="31.0" fill="#000000" transform="matrix(1.00, 0.00, -0.00, -1.00, 219.9, 341.8)">s</text><text xml:space="preserve" font-family="CourierNewPSMT,Courier New" font-size="31.0" fill="#000000" transform="matrix(1.00, 0.00, -0.00, -1.00, 238.5, 341.8)">i</text><text xml:space="preserve" font-family="CourierNewPSMT,Courier New" font-size="31.0" fill="#000000" transform="matrix(1.00, 0.00, -0.00, -1.00, 257.1, 341.8)">m</text><text xml:space="preserve" font-family="CourierNewPSMT,Courier New" font-size="31.0" fill="#000000" transform="matrix(1.00, 0.00, -0.00, -1.00, 275.7, 341.8)">p</text><text xml:space="preserve" font-family="CourierNewPSMT,Courier New" font-size="31.0" fill="#000000" transform="matrix(1.00, 0.00, -0.00, -1.00, 294.3, 341.8)">l</text><text xml:space="preserve" font-family="CourierNewPSMT,Courier New" font-size="31.0" fill="#000000" transform="matrix(1.00, 0.00, -0.00, -1.00, 312.9, 341.8)">e</text><text xml:space="preserve" font-family="CourierNewPSMT,Courier New" font-size="31.0" fill="#000000" transform="matrix(1.00, 0.00, -0.00, -1.00, 331.5, 341.8)">D</text><text xml:space="preserve" font-family="CourierNewPSMT,Courier New" font-size="31.0" fill="#000000" transform="matrix(1.00, 0.00, -0.00, -1.00, 350.1, 341.8)">e</text><text xml:space="preserve" font-family="CourierNewPSMT,Courier New" font-size="31.0" fill="#000000" transform="matrix(1.00, 0.00, -0.00, -1.00, 368.7, 341.8)">s</text><text xml:space="preserve" font-family="CourierNewPSMT,Courier New" font-size="31.0" fill="#000000" transform="matrix(1.00, 0.00, -0.00, -1.00, 387.3, 341.8)">c</text><text xml:space="preserve" font-family="CourierNewPSMT,Courier New" font-size="31.0" fill="#000000" transform="matrix(1.00, 0.00, -0.00, -1.00, 405.9, 341.8)">r</text><text xml:space="preserve" font-family="CourierNewPSMT,Courier New" font-size="31.0" fill="#000000" transform="matrix(1.00, 0.00, -0.00, -1.00, 424.5, 341.8)">i</text><text xml:space="preserve" font-family="CourierNewPSMT,Courier New" font-size="31.0" fill="#000000" transform="matrix(1.00, 0.00, -0.00, -1.00, 443.1, 341.8)">p</text><text xml:space="preserve" font-family="CourierNewPSMT,Courier New" font-size="31.0" fill="#000000" transform="matrix(1.00, 0.00, -0.00, -1.00, 461.8, 341.8)">t</text><text xml:space="preserve" font-family="CourierNewPSMT,Courier New" font-size="31.0" fill="#000000" transform="matrix(1.00, 0.00, -0.00, -1.00, 480.4, 341.8)">i</text><text xml:space="preserve" font-family="CourierNewPSMT,Courier New" font-size="31.0" fill="#000000" transform="matrix(1.00, 0.00, -0.00, -1.00, 499.0, 341.8)">o</text><text xml:space="preserve" font-family="CourierNewPSMT,Courier New" font-size="31.0" fill="#000000" transform="matrix(1.00, 0.00, -0.00, -1.00, 517.6, 341.8)">n</text><text xml:space="preserve" font-family="CourierNewPSMT,Courier New" font-size="31.0" fill="#000000" transform="matrix(1.00, 0.00, -0.00, -1.00, 536.2, 341.8)">(</text><text xml:space="preserve" font-family="CourierNewPSMT,Courier New" font-size="31.0" fill="#000000" transform="matrix(1.00, 0.00, -0.00, -1.00, 554.8, 341.8)">)</text><text xml:space="preserve" font-family="CourierNewPSMT,Courier New" font-size="31.0" fill="#000000" transform="matrix(1.00, 0.00, -0.00, -1.00, 573.4, 341.8)"> </text><text xml:space="preserve" font-family="CourierNewPSMT,Courier New" font-size="31.0" fill="#000000" transform="matrix(1.00, 0.00, -0.00, -1.00, 592.0, 341.8)">-</text><text xml:space="preserve" font-family="CourierNewPSMT,Courier New" font-size="31.0" fill="#000000" transform="matrix(1.00, 0.00, -0.00, -1.00, 610.6, 341.8)">&gt;</text><text xml:space="preserve" font-family="CourierNewPSMT,Courier New" font-size="31.0" fill="#000000" transform="matrix(1.00, 0.00, -0.00, -1.00, 629.2, 341.8)"> </text><text xml:space="preserve" font-family="CourierNewPSMT,Courier New" font-size="31.0" fill="#000000" transform="matrix(1.00, 0.00, -0.00, -1.00, 647.8, 341.8)">S</text><text xml:space="preserve" font-family="CourierNewPSMT,Courier New" font-size="31.0" fill="#000000" transform="matrix(1.00, 0.00, -0.00, -1.00, 666.4, 341.8)">t</text><text xml:space="preserve" font-family="CourierNewPSMT,Courier New" font-size="31.0" fill="#000000" transform="matrix(1.00, 0.00, -0.00, -1.00, 685.0, 341.8)">r</text><text xml:space="preserve" font-family="CourierNewPSMT,Courier New" font-size="31.0" fill="#000000" transform="matrix(1.00, 0.00, -0.00, -1.00, 703.6, 341.8)">i</text><text xml:space="preserve" font-family="CourierNewPSMT,Courier New" font-size="31.0" fill="#000000" transform="matrix(1.00, 0.00, -0.00, -1.00, 722.2, 341.8)">n</text><text xml:space="preserve" font-family="CourierNewPSMT,Courier New" font-size="31.0" fill="#000000" transform="matrix(1.00, 0.00, -0.00, -1.00, 740.8, 341.8)">g</text><text xml:space="preserve" font-family="CourierNewPSMT,Courier New" font-size="31.0" fill="#000000" transform="matrix(1.00, 0.00, -0.00, -1.00, 759.5, 341.8)"> </text><text xml:space="preserve" font-family="CourierNewPSMT,Courier New" font-size="31.0" fill="#000000" transform="matrix(1.00, 0.00, -0.00, -1.00, 778.1, 341.8)">{</text><text xml:space="preserve" font-family="CourierNewPSMT,Courier New" font-size="31.0" fill="#000000" transform="matrix(1.00, 0.00, -0.00, -1.00, 796.7, 341.8)"> </text><text xml:space="preserve" font-family="CourierNewPSMT,Courier New" font-size="31.0" fill="#CC1C00" transform="matrix(1.00, 0.00, -0.00, -1.00, 52.4, 303.2)"> </text><text xml:space="preserve" font-family="CourierNewPSMT,Courier New" font-size="31.0" fill="#CC1C00" transform="matrix(1.00, 0.00, -0.00, -1.00, 88.4, 303.2)"> </text><text xml:space="preserve" font-family="CourierNewPSMT,Courier New" font-size="31.0" fill="#CC1C00" transform="matrix(1.00, 0.00, -0.00, -1.00, 124.4, 303.2)"> </text><text xml:space="preserve" font-family="Times-Bold,Times" font-weight="bold" font-size="31.0" fill="#000000" transform="matrix(1.00, 0.00, -0.00, -1.00, 160.4, 303.2)">r</text><text xml:space="preserve" font-family="Times-Bold,Times" font-weight="bold" font-size="31.0" fill="#000000" transform="matrix(1.00, 0.00, -0.00, -1.00, 173.6, 303.2)">e</text><text xml:space="preserve" font-family="Times-Bold,Times" font-weight="bold" font-size="31.0" fill="#000000" transform="matrix(1.00, 0.00, -0.00, -1.00, 187.4, 303.2)">t</text><text xml:space="preserve" font-family="Times-Bold,Times" font-weight="bold" font-size="31.0" fill="#000000" transform="matrix(1.00, 0.00, -0.00, -1.00, 197.7, 303.2)">u</text><text xml:space="preserve" font-family="Times-Bold,Times" font-weight="bold" font-size="31.0" fill="#000000" transform="matrix(1.00, 0.00, -0.00, -1.00, 215.0, 303.2)">r</text><text xml:space="preserve" font-family="Times-Bold,Times" font-weight="bold" font-size="31.0" fill="#000000" transform="matrix(1.00, 0.00, -0.00, -1.00, 228.7, 303.2)">n</text><text xml:space="preserve" font-family="Times-Bold,Times" font-weight="bold" font-size="31.0" fill="#000000" transform="matrix(1.00, 0.00, -0.00, -1.00, 246.0, 303.2)"> </text><text xml:space="preserve" font-family="CourierNewPSMT,Courier New" font-size="31.0" fill="#CC1C00" transform="matrix(1.00, 0.00, -0.00, -1.00, 253.7, 303.2)">"</text><text xml:space="preserve" font-family="CourierNewPSMT,Courier New" font-size="31.0" fill="#CC1C00" transform="matrix(1.00, 0.00, -0.00, -1.00, 272.3, 303.2)">A</text><text xml:space="preserve" font-family="CourierNewPSMT,Courier New" font-size="31.0" fill="#CC1C00" transform="matrix(1.00, 0.00, -0.00, -1.00, 290.9, 303.2)"> </text><text xml:space="preserve" font-family="CourierNewPSMT,Courier New" font-size="31.0" fill="#CC1C00" transform="matrix(1.00, 0.00, -0.00, -1.00, 309.5, 303.2)">s</text><text xml:space="preserve" font-family="CourierNewPSMT,Courier New" font-size="31.0" fill="#CC1C00" transform="matrix(1.00, 0.00, -0.00, -1.00, 328.1, 303.2)">h</text><text xml:space="preserve" font-family="CourierNewPSMT,Courier New" font-size="31.0" fill="#CC1C00" transform="matrix(1.00, 0.00, -0.00, -1.00, 346.7, 303.2)">a</text><text xml:space="preserve" font-family="CourierNewPSMT,Courier New" font-size="31.0" fill="#CC1C00" transform="matrix(1.00, 0.00, -0.00, -1.00, 365.3, 303.2)">p</text><text xml:space="preserve" font-family="CourierNewPSMT,Courier New" font-size="31.0" fill="#CC1C00" transform="matrix(1.00, 0.00, -0.00, -1.00, 384.0, 303.2)">e</text><text xml:space="preserve" font-family="CourierNewPSMT,Courier New" font-size="31.0" fill="#CC1C00" transform="matrix(1.00, 0.00, -0.00, -1.00, 402.6, 303.2)"> </text><text xml:space="preserve" font-family="CourierNewPSMT,Courier New" font-size="31.0" fill="#CC1C00" transform="matrix(1.00, 0.00, -0.00, -1.00, 421.2, 303.2)">w</text><text xml:space="preserve" font-family="CourierNewPSMT,Courier New" font-size="31.0" fill="#CC1C00" transform="matrix(1.00, 0.00, -0.00, -1.00, 439.8, 303.2)">i</text><text xml:space="preserve" font-family="CourierNewPSMT,Courier New" font-size="31.0" fill="#CC1C00" transform="matrix(1.00, 0.00, -0.00, -1.00, 458.4, 303.2)">t</text><text xml:space="preserve" font-family="CourierNewPSMT,Courier New" font-size="31.0" fill="#CC1C00" transform="matrix(1.00, 0.00, -0.00, -1.00, 477.0, 303.2)">h</text><text xml:space="preserve" font-family="CourierNewPSMT,Courier New" font-size="31.0" fill="#CC1C00" transform="matrix(1.00, 0.00, -0.00, -1.00, 495.6, 303.2)"> </text><text xml:space="preserve" font-family="CourierNewPSMT,Courier New" font-size="31.0" fill="#CC1C00" transform="matrix(1.00, 0.00, -0.00, -1.00, 514.2, 303.2)">\</text><text xml:space="preserve" font-family="CourierNewPSMT,Courier New" font-size="31.0" fill="#CC1C00" transform="matrix(1.00, 0.00, -0.00, -1.00, 532.8, 303.2)">(</text><text xml:space="preserve" font-family="CourierNewPSMT,Courier New" font-size="31.0" fill="#CC1C00" transform="matrix(1.00, 0.00, -0.00, -1.00, 551.4, 303.2)">n</text><text xml:space="preserve" font-family="CourierNewPSMT,Courier New" font-size="31.0" fill="#CC1C00" transform="matrix(1.00, 0.00, -0.00, -1.00, 570.0, 303.2)">u</text><text xml:space="preserve" font-family="CourierNewPSMT,Courier New" font-size="31.0" fill="#CC1C00" transform="matrix(1.00, 0.00, -0.00, -1.00, 588.6, 303.2)">m</text><text xml:space="preserve" font-family="CourierNewPSMT,Courier New" font-size="31.0" fill="#CC1C00" transform="matrix(1.00, 0.00, -0.00, -1.00, 607.2, 303.2)">b</text><text xml:space="preserve" font-family="CourierNewPSMT,Courier New" font-size="31.0" fill="#CC1C00" transform="matrix(1.00, 0.00, -0.00, -1.00, 625.8, 303.2)">e</text><text xml:space="preserve" font-family="CourierNewPSMT,Courier New" font-size="31.0" fill="#CC1C00" transform="matrix(1.00, 0.00, -0.00, -1.00, 644.4, 303.2)">r</text><text xml:space="preserve" font-family="CourierNewPSMT,Courier New" font-size="31.0" fill="#CC1C00" transform="matrix(1.00, 0.00, -0.00, -1.00, 663.0, 303.2)">O</text><text xml:space="preserve" font-family="CourierNewPSMT,Courier New" font-size="31.0" fill="#CC1C00" transform="matrix(1.00, 0.00, -0.00, -1.00, 681.6, 303.2)">f</text><text xml:space="preserve" font-family="CourierNewPSMT,Courier New" font-size="31.0" fill="#CC1C00" transform="matrix(1.00, 0.00, -0.00, -1.00, 700.3, 303.2)">S</text><text xml:space="preserve" font-family="CourierNewPSMT,Courier New" font-size="31.0" fill="#CC1C00" transform="matrix(1.00, 0.00, -0.00, -1.00, 718.9, 303.2)">i</text><text xml:space="preserve" font-family="CourierNewPSMT,Courier New" font-size="31.0" fill="#CC1C00" transform="matrix(1.00, 0.00, -0.00, -1.00, 737.5, 303.2)">d</text><text xml:space="preserve" font-family="CourierNewPSMT,Courier New" font-size="31.0" fill="#CC1C00" transform="matrix(1.00, 0.00, -0.00, -1.00, 756.1, 303.2)">e</text><text xml:space="preserve" font-family="CourierNewPSMT,Courier New" font-size="31.0" fill="#CC1C00" transform="matrix(1.00, 0.00, -0.00, -1.00, 774.7, 303.2)">s</text><text xml:space="preserve" font-family="CourierNewPSMT,Courier New" font-size="31.0" fill="#CC1C00" transform="matrix(1.00, 0.00, -0.00, -1.00, 793.3, 303.2)">)</text><text xml:space="preserve" font-family="CourierNewPSMT,Courier New" font-size="31.0" fill="#CC1C00" transform="matrix(1.00, 0.00, -0.00, -1.00, 811.9, 303.2)"> </text><text xml:space="preserve" font-family="CourierNewPSMT,Courier New" font-size="31.0" fill="#CC1C00" transform="matrix(1.00, 0.00, -0.00, -1.00, 830.5, 303.2)">s</text><text xml:space="preserve" font-family="CourierNewPSMT,Courier New" font-size="31.0" fill="#CC1C00" transform="matrix(1.00, 0.00, -0.00, -1.00, 849.1, 303.2)">i</text><text xml:space="preserve" font-family="CourierNewPSMT,Courier New" font-size="31.0" fill="#CC1C00" transform="matrix(1.00, 0.00, -0.00, -1.00, 867.7, 303.2)">d</text><text xml:space="preserve" font-family="CourierNewPSMT,Courier New" font-size="31.0" fill="#CC1C00" transform="matrix(1.00, 0.00, -0.00, -1.00, 886.3, 303.2)">e</text><text xml:space="preserve" font-family="CourierNewPSMT,Courier New" font-size="31.0" fill="#CC1C00" transform="matrix(1.00, 0.00, -0.00, -1.00, 904.9, 303.2)">s</text><text xml:space="preserve" font-family="CourierNewPSMT,Courier New" font-size="31.0" fill="#CC1C00" transform="matrix(1.00, 0.00, -0.00, -1.00, 923.5, 303.2)">.</text><text xml:space="preserve" font-family="CourierNewPSMT,Courier New" font-size="31.0" fill="#CC1C00" transform="matrix(1.00, 0.00, -0.00, -1.00, 942.1, 303.2)">"</text><text xml:space="preserve" font-family="CourierNewPSMT,Courier New" font-size="31.0" fill="#CC1C00" transform="matrix(1.00, 0.00, -0.00, -1.00, 960.7, 303.2)"> </text><text xml:space="preserve" font-family="CourierNewPSMT,Courier New" font-size="31.0" fill="#CC1C00" transform="matrix(1.00, 0.00, -0.00, -1.00, 979.2, 303.2)"> </text><text xml:space="preserve" font-family="CourierNewPSMT,Courier New" font-size="31.0" fill="#CC1C00" transform="matrix(1.00, 0.00, -0.00, -1.00, 52.4, 256.2)"> </text><text xml:space="preserve" font-family="CourierNewPSMT,Courier New" font-size="31.0" fill="#CC1C00" transform="matrix(1.00, 0.00, -0.00, -1.00, 88.4, 256.2)"> </text><text xml:space="preserve" font-family="CourierNewPSMT,Courier New" font-size="31.0" fill="#000000" transform="matrix(1.00, 0.00, -0.00, -1.00, 124.4, 256.2)">}</text><text xml:space="preserve" font-family="Times-Roman,Times" font-size="31.0" fill="#000000" transform="matrix(1.00, 0.00, -0.00, -1.00, 143.0, 256.2)">	</text><text xml:space="preserve" font-family="Times-Roman,Times" font-size="31.0" fill="#000000" transform="matrix(1.00, 0.00, -0.00, -1.00, 171.0, 256.2)">
</text><text xml:space="preserve" font-family="Times-Roman,Times" font-size="31.0" fill="#000000" transform="matrix(1.00, 0.00, -0.00, -1.00, 171.0, 256.2)"></text><text xml:space="preserve" font-family="CourierNewPSMT,Courier New" font-size="31.0" fill="#000000" transform="matrix(1.00, 0.00, -0.00, -1.00, 52.4, 209.2)">}</text><text xml:space="preserve" font-family="Times-Roman,Times" font-size="31.0" fill="#000000" transform="matrix(1.00, 0.00, -0.00, -1.00, 71.0, 209.2)">	</text><text xml:space="preserve" font-family="Times-Roman,Times" font-size="31.0" fill="#000000" transform="matrix(1.00, 0.00, -0.00, -1.00, 99.0, 209.2)">
</text><text xml:space="preserve" font-family="Times-Roman,Times" font-size="31.0" fill="#000000" transform="matrix(1.00, 0.00, -0.00, -1.00, 99.0, 209.2)"></text></g></svg>